<svg width="85" height="85" viewBox="0 0 85 85" fill="none" xmlns="http://www.w3.org/2000/svg">
<rect x="0.780273" y="42.5" width="59" height="59" rx="16" transform="rotate(-45 0.780273 42.5)" fill="#42FFF4"/>
<path d="M54.167 33.7474H48.3337V30.8307C48.3337 29.212 47.0357 27.9141 45.417 27.9141H39.5837C37.9649 27.9141 36.667 29.212 36.667 30.8307V33.7474H30.8337C29.2149 33.7474 27.9316 35.0453 27.9316 36.6641L27.917 52.7057C27.917 54.3245 29.2149 55.6224 30.8337 55.6224H54.167C55.7857 55.6224 57.0837 54.3245 57.0837 52.7057V36.6641C57.0837 35.0453 55.7857 33.7474 54.167 33.7474ZM45.417 33.7474H39.5837V30.8307H45.417V33.7474Z" fill="#0D2E4B"/>
</svg>
