<svg width="59" height="59" viewBox="0 0 59 59" fill="none" xmlns="http://www.w3.org/2000/svg">
<rect width="59" height="59" rx="29.5" fill="#FD7800"/>
<path d="M40.408 30.0085C38.1184 24.0585 29.9663 23.7377 31.9351 15.0898C32.0809 14.4481 31.3955 13.9523 30.8413 14.2877C25.5476 17.4085 21.7413 23.6648 24.9351 31.8606C25.1976 32.5314 24.4101 33.1585 23.8413 32.721C21.2018 30.7231 20.9247 27.8502 21.158 25.7939C21.2455 25.0356 20.2538 24.671 19.8309 25.2981C18.8393 26.8148 17.833 29.2648 17.833 32.9543C18.3872 41.121 25.2851 43.6293 27.7643 43.9502C31.308 44.4023 35.1434 43.746 37.8997 41.2231C40.933 38.4085 42.0413 33.9168 40.408 30.0085ZM26.8747 37.3439C28.9747 36.8335 30.0538 35.3168 30.3455 33.9752C30.8268 31.8898 28.9455 29.8481 30.2143 26.5523C30.6955 29.2793 34.983 30.9856 34.983 33.9606C35.0997 37.6502 31.1038 40.8148 26.8747 37.3439Z" fill="#260101" fill-opacity="0.44"/>
<path d="M40.408 30.0085C38.1184 24.0585 29.9663 23.7377 31.9351 15.0898C32.0809 14.4481 31.3955 13.9523 30.8413 14.2877C25.5476 17.4085 21.7413 23.6648 24.9351 31.8606C25.1976 32.5314 24.4101 33.1585 23.8413 32.721C21.2018 30.7231 20.9247 27.8502 21.158 25.7939C21.2455 25.0356 20.2538 24.671 19.8309 25.2981C18.8393 26.8148 17.833 29.2648 17.833 32.9543C18.3872 41.121 25.2851 43.6293 27.7643 43.9502C31.308 44.4023 35.1434 43.746 37.8997 41.2231C40.933 38.4085 42.0413 33.9168 40.408 30.0085ZM26.8747 37.3439C28.9747 36.8335 30.0538 35.3168 30.3455 33.9752C30.8268 31.8898 28.9455 29.8481 30.2143 26.5523C30.6955 29.2793 34.983 30.9856 34.983 33.9606C35.0997 37.6502 31.1038 40.8148 26.8747 37.3439Z" fill="#260101" fill-opacity="0.44"/>
</svg>
