<svg width="59" height="59" viewBox="0 0 59 59" fill="none" xmlns="http://www.w3.org/2000/svg">
<rect width="59" height="59" rx="16" fill="#FF3C48"/>
<path d="M19.2919 31.2188V35.3167C19.2919 36.3813 19.8752 37.3729 20.8085 37.8833L28.1002 41.8646C28.9752 42.3458 30.0252 42.3458 30.9002 41.8646L38.1919 37.8833C39.1252 37.3729 39.7085 36.3813 39.7085 35.3167V31.2188L30.9002 36.0313C30.0252 36.5125 28.9752 36.5125 28.1002 36.0313L19.2919 31.2188ZM28.1002 17.1313L15.8064 23.8396C14.8002 24.3937 14.8002 25.8521 15.8064 26.4063L28.1002 33.1146C28.9752 33.5958 30.0252 33.5958 30.9002 33.1146L42.6252 26.7125V35.3313C42.6252 36.1333 43.2814 36.7896 44.0835 36.7896C44.8856 36.7896 45.5419 36.1333 45.5419 35.3313V25.9833C45.5419 25.4438 45.2502 24.9625 44.7835 24.7L30.9002 17.1313C30.0252 16.6646 28.9752 16.6646 28.1002 17.1313V17.1313Z" fill="#530C0C"/>
</svg>
