<svg width="60" height="60" viewBox="0 0 60 60" fill="none" xmlns="http://www.w3.org/2000/svg">
<path d="M26 2.3094C28.4752 0.880338 31.5248 0.880339 34 2.3094L51.9808 12.6906C54.456 14.1197 55.9808 16.7607 55.9808 19.6188V40.3812C55.9808 43.2393 54.456 45.8803 51.9808 47.3094L34 57.6906C31.5248 59.1197 28.4752 59.1197 26 57.6906L8.01924 47.3094C5.54403 45.8803 4.01924 43.2393 4.01924 40.3812V19.6188C4.01924 16.7607 5.54403 14.1197 8.01924 12.6906L26 2.3094Z" fill="#F26DF8"/>
<path d="M18.9235 41.6583C18.5548 41.8061 18.2045 41.7753 17.8727 41.5659C17.5409 41.3565 17.375 41.0548 17.375 40.6607V34.1209C17.375 33.8499 17.4549 33.6159 17.6146 33.4189C17.7744 33.2218 17.9772 33.0987 18.223 33.0494L28.5091 30.5L18.223 27.8767C17.9772 27.8274 17.7744 27.7043 17.6146 27.5072C17.4549 27.3102 17.375 27.0762 17.375 26.8052V20.3393C17.375 19.9452 17.5409 19.6435 17.8727 19.4341C18.2045 19.2247 18.5548 19.1939 18.9235 19.3417L42.9614 29.4655C43.4038 29.6625 43.625 30.0074 43.625 30.5C43.625 30.9926 43.4038 31.3375 42.9614 31.5345L18.9235 41.6583Z" fill="#36016A"/>
</svg>
