<svg width="59" height="59" viewBox="0 0 59 59" fill="none" xmlns="http://www.w3.org/2000/svg">
<rect width="59" height="59" rx="16" fill="#00FF29"/>
<g clip-path="url(#clip0_1201_3354)">
<path d="M18.7772 38.6888C17.3047 36.5232 17.7628 33.5655 19.6192 31.709L23.2454 28.0828C23.889 27.4393 23.889 26.375 23.2456 25.7315C22.6021 25.0881 21.5378 25.0881 20.8943 25.7317L17.3918 29.2342C14.1616 32.4643 13.6415 37.7115 16.5494 41.2382C19.8781 45.2847 25.8801 45.4946 29.4939 41.8808L33.2686 38.1061C33.9122 37.4625 33.9123 36.3982 33.2688 35.7548C32.6254 35.1113 31.5611 35.1114 30.9175 35.7549L27.1428 39.5297C24.7789 41.8935 20.757 41.6092 18.7772 38.6888ZM27.0194 34.4558L34.4451 27.0301C35.1258 26.3494 35.1259 25.2357 34.4453 24.5551C33.7647 23.8745 32.6509 23.8746 31.9702 24.5552L24.5445 31.9809C23.8638 32.6616 23.8638 33.7754 24.5444 34.456C25.2249 35.1366 26.3387 35.1365 27.0194 34.4558ZM29.2234 17.4025L25.721 20.905C25.0774 21.5486 25.0773 22.6128 25.7208 23.2563C26.3643 23.8998 27.4286 23.8997 28.0721 23.2561L31.6983 19.6299C33.5548 17.7735 36.5125 17.3154 38.678 18.7879C41.5985 20.7677 41.8828 24.7897 39.519 27.1535L35.7442 30.9282C35.1007 31.5718 35.1006 32.6361 35.7441 33.2795C36.3875 33.923 37.4518 33.9229 38.0954 33.2794L41.8701 29.5046C45.4839 25.8908 45.274 19.8888 41.2399 16.5478C37.7131 13.6398 32.4536 14.1724 29.2234 17.4025Z" fill="#214B0D"/>
</g>
<defs>
<clipPath id="clip0_1201_3354">
<path d="M17.1253 41.8744C10.2912 35.0402 10.2912 23.9598 17.1253 17.1256V17.1256C23.9595 10.2915 35.0399 10.2915 41.8741 17.1256V17.1256C48.7083 23.9598 48.7083 35.0402 41.8741 41.8744V41.8744C35.0399 48.7085 23.9595 48.7085 17.1253 41.8744V41.8744Z" fill="white"/>
</clipPath>
</defs>
</svg>
