<svg width="65" height="65" viewBox="0 0 65 65" fill="none" xmlns="http://www.w3.org/2000/svg">
<g clip-path="url(#clip0_1201_3362)">
<path d="M23.0299 6.73613C27.7486 0.390068 37.2514 0.390067 41.9701 6.73613V6.73613C43.9117 9.34721 46.8451 11.0408 50.0771 11.4167V11.4167C57.9323 12.3302 62.6837 20.5599 59.5472 27.8194V27.8194C58.2567 30.8064 58.2567 34.1936 59.5472 37.1806V37.1806C62.6837 44.4401 57.9323 52.6698 50.0771 53.5833V53.5833C46.8451 53.9592 43.9117 55.6528 41.9701 58.2639V58.2639C37.2514 64.6099 27.7486 64.6099 23.0299 58.2639V58.2639C21.0883 55.6528 18.1549 53.9592 14.9229 53.5833V53.5833C7.0677 52.6698 2.31627 44.4401 5.45276 37.1806V37.1806C6.74327 34.1936 6.74327 30.8064 5.45276 27.8195V27.8195C2.31627 20.5599 7.0677 12.3302 14.9229 11.4167V11.4167C18.1549 11.0408 21.0883 9.34721 23.0299 6.73613V6.73613Z" fill="#FFD600"/>
<path d="M38.476 45.4193C37.4642 45.4193 36.5977 45.0587 35.8766 44.3375C35.1554 43.6163 34.7948 42.7498 34.7948 41.738C34.7948 41.5873 34.8109 41.4097 34.8432 41.2052C34.8755 41.0007 34.924 40.8123 34.9885 40.6401L25.2042 34.9568C24.8812 35.3227 24.483 35.6187 24.0094 35.8448C23.5358 36.0708 23.0514 36.1839 22.5562 36.1839C21.5444 36.1839 20.678 35.8233 19.9568 35.1021C19.2356 34.3809 18.875 33.5144 18.875 32.5026C18.875 31.4693 19.2356 30.5974 19.9568 29.887C20.678 29.1766 21.5444 28.8214 22.5562 28.8214C23.0514 28.8214 23.525 28.9182 23.9771 29.112C24.4292 29.3057 24.8382 29.5856 25.2042 29.9516L34.9885 24.3328C34.924 24.1821 34.8755 24.0099 34.8432 23.8161C34.8109 23.6224 34.7948 23.4394 34.7948 23.2672C34.7948 22.2339 35.1554 21.362 35.8766 20.6516C36.5977 19.9411 37.4642 19.5859 38.476 19.5859C39.5094 19.5859 40.3813 19.9411 41.0917 20.6516C41.8021 21.362 42.1573 22.2339 42.1573 23.2672C42.1573 24.279 41.8021 25.1455 41.0917 25.8667C40.3813 26.5878 39.5094 26.9484 38.476 26.9484C37.9809 26.9484 37.5019 26.8677 37.0391 26.7062C36.5762 26.5448 36.1833 26.2811 35.8604 25.9151L26.076 31.3401C26.1191 31.5123 26.1568 31.7115 26.1891 31.9375C26.2214 32.1635 26.2375 32.3519 26.2375 32.5026C26.2375 32.6533 26.2214 32.8148 26.1891 32.987C26.1568 33.1592 26.1191 33.3314 26.076 33.5036L35.8604 39.0578C36.1833 38.7564 36.5601 38.5142 36.9906 38.3313C37.4212 38.1483 37.9163 38.0568 38.476 38.0568C39.5094 38.0568 40.3813 38.412 41.0917 39.1224C41.8021 39.8328 42.1573 40.7047 42.1573 41.738C42.1573 42.7498 41.8021 43.6163 41.0917 44.3375C40.3813 45.0587 39.5094 45.4193 38.476 45.4193Z" fill="#54370A"/>
</g>
<defs>
<clipPath id="clip0_1201_3362">
<rect width="65" height="65" fill="white"/>
</clipPath>
</defs>
</svg>
