<svg width="902" height="618" viewBox="0 0 902 618" fill="none" xmlns="http://www.w3.org/2000/svg">
<rect width="1179" height="618" rx="32" fill="black"/>
<path d="M57.25 94.9469L43.55 81.1969C43.35 80.9969 43.2083 80.8052 43.125 80.6219C43.0417 80.4385 43 80.2302 43 79.9969C43 79.7635 43.0417 79.5552 43.125 79.3719C43.2083 79.1885 43.35 78.9969 43.55 78.7969L57.3 64.9969C57.6333 64.6969 58.025 64.5469 58.475 64.5469C58.925 64.5469 59.3167 64.7135 59.65 65.0469C60.0167 65.4135 60.2 65.8219 60.2 66.2719C60.2 66.7219 60.0167 67.1135 59.65 67.4469L48.85 78.2969H72.9C73.4 78.2969 73.8083 78.4552 74.125 78.7719C74.4417 79.0885 74.6 79.4969 74.6 79.9969C74.6 80.4969 74.4417 80.9052 74.125 81.2219C73.8083 81.5385 73.4 81.6969 72.9 81.6969H48.85L59.7 92.5969C60.0333 92.8969 60.2 93.2719 60.2 93.7219C60.2 94.1719 60.0167 94.5802 59.65 94.9469C59.3167 95.2802 58.925 95.4469 58.475 95.4469C58.025 95.4469 57.6167 95.2802 57.25 94.9469Z" fill="white"/>
<rect x="98.5996" y="45" width="974" height="70" rx="35" fill="white" fill-opacity="0.05"/>
<path d="M141.449 73.91C136.946 73.91 133.906 75.943 132.861 79.667L136.528 80.636C137.193 78.47 138.732 77.463 141.411 77.463C144.432 77.463 145.914 78.869 145.971 82.004L140.328 82.707C135.141 83.353 132.12 85.367 132.12 89.49C132.12 93.195 134.837 95.57 139.074 95.57C142.266 95.57 144.584 94.354 145.971 91.998V95H149.961V82.745C149.961 76.779 147.168 73.91 141.449 73.91ZM145.971 85.006V85.139C145.971 86.051 145.971 87.267 145.591 88.255C144.945 90.592 142.836 92.207 139.986 92.207C137.383 92.207 136.034 91.181 136.034 89.186C136.034 87.153 137.497 86.051 140.822 85.652L145.971 85.006ZM169.638 67.64V77.463C168.365 75.24 166.256 73.91 163.064 73.91C157.554 73.91 153.754 78.337 153.754 84.759C153.754 91.105 157.516 95.57 163.064 95.57C166.256 95.57 168.365 94.24 169.638 92.017V95H173.628V67.64H169.638ZM163.824 77.653C167.662 77.653 169.638 80.427 169.638 84.759C169.638 88.939 167.814 91.827 163.824 91.827C159.929 91.827 157.972 89.053 157.972 84.759C157.972 80.56 159.891 77.653 163.824 77.653ZM187.719 95.57C192.127 95.57 195.319 93.385 196.668 89.357L192.64 88.407C191.823 90.592 190.284 91.827 187.719 91.827C183.957 91.827 182.019 88.977 182.019 84.74C182.019 80.503 183.919 77.653 187.719 77.653C190.018 77.653 191.937 79.002 192.716 81.301L196.668 80.161C195.642 76.304 192.26 73.91 187.776 73.91C181.62 73.91 177.801 78.318 177.801 84.74C177.801 91.086 181.525 95.57 187.719 95.57ZM204.68 95V90.801H200.481V95H204.68ZM218.859 73.91C214.356 73.91 211.316 75.943 210.271 79.667L213.938 80.636C214.603 78.47 216.142 77.463 218.821 77.463C221.842 77.463 223.324 78.869 223.381 82.004L217.738 82.707C212.551 83.353 209.53 85.367 209.53 89.49C209.53 93.195 212.247 95.57 216.484 95.57C219.676 95.57 221.994 94.354 223.381 91.998V95H227.371V82.745C227.371 76.779 224.578 73.91 218.859 73.91ZM223.381 85.006V85.139C223.381 86.051 223.381 87.267 223.001 88.255C222.355 90.592 220.246 92.207 217.396 92.207C214.793 92.207 213.444 91.181 213.444 89.186C213.444 87.153 214.907 86.051 218.232 85.652L223.381 85.006ZM241.083 95.57C245.491 95.57 248.683 93.385 250.032 89.357L246.004 88.407C245.187 90.592 243.648 91.827 241.083 91.827C237.321 91.827 235.383 88.977 235.383 84.74C235.383 80.503 237.283 77.653 241.083 77.653C243.382 77.653 245.301 79.002 246.08 81.301L250.032 80.161C249.006 76.304 245.624 73.91 241.14 73.91C234.984 73.91 231.165 78.318 231.165 84.74C231.165 91.086 234.889 95.57 241.083 95.57ZM260.818 67.64L253.522 95H257.531L264.827 67.64H260.818Z" fill="white"/>
<path d="M291.787 91.998V95H295.283V83.828C295.283 77.501 291.255 73.91 284.187 73.91C275.751 73.91 270.165 79.591 270.165 88.217C270.165 97.128 275.694 102.923 284.187 102.923C287.379 102.923 290.457 101.992 292.794 100.168L290.742 96.976C289.146 98.401 286.714 99.161 284.149 99.161C277.822 99.161 273.984 95.057 273.984 88.217C273.984 81.757 278.031 77.463 284.149 77.463C288.177 77.463 290.666 79.059 291.236 82.023L285.65 82.707C281.318 83.258 277.461 84.721 277.461 89.49C277.461 92.986 279.969 95.57 284.415 95.57C287.759 95.57 290.058 94.411 291.787 91.998ZM291.331 85.006V85.139C291.331 86.051 291.293 87.267 290.932 88.255C290.267 90.592 288.177 92.207 285.308 92.207C282.648 92.207 281.375 91.124 281.375 89.186C281.375 87.153 282.819 86.07 286.163 85.652L291.331 85.006ZM302.875 78.204V95H306.846V78.204H312.033V74.48H306.846V73.245C306.846 71.117 307.606 70.338 309.677 70.338H312.033V67.07H308.955C304.718 67.07 302.875 68.932 302.875 73.169V74.48H299.474V78.204H302.875ZM322.691 73.91C318.188 73.91 315.148 75.943 314.103 79.667L317.77 80.636C318.435 78.47 319.974 77.463 322.653 77.463C325.674 77.463 327.156 78.869 327.213 82.004L321.57 82.707C316.383 83.353 313.362 85.367 313.362 89.49C313.362 93.195 316.079 95.57 320.316 95.57C323.508 95.57 325.826 94.354 327.213 91.998V95H331.203V82.745C331.203 76.779 328.41 73.91 322.691 73.91ZM327.213 85.006V85.139C327.213 86.051 327.213 87.267 326.833 88.255C326.187 90.592 324.078 92.207 321.228 92.207C318.625 92.207 317.276 91.181 317.276 89.186C317.276 87.153 318.739 86.051 322.064 85.652L327.213 85.006ZM339.747 74.48H335.757V86.545C335.757 92.739 339.044 95.57 343.965 95.57C347.309 95.57 349.171 94.05 350.159 92.169V95H354.149V74.48H350.159V85.766C350.159 89.813 348.145 91.827 344.915 91.827C341.666 91.827 339.747 89.794 339.747 85.766V74.48ZM367.326 95.551C372.475 95.551 375.61 93.1 375.61 89.072C375.61 86.241 374.109 84.645 370.252 83.486C368.789 83.049 367.459 82.65 366.395 82.346C364.59 81.795 362.937 81.282 362.937 79.857C362.937 78.413 364.609 77.387 366.851 77.387C369.397 77.387 371.145 78.641 371.43 80.674L375.496 79.933C374.964 76.266 371.639 73.91 366.984 73.91C362.196 73.91 358.966 76.361 358.966 80.009C358.966 83.448 361.664 84.816 366.148 85.975C367.706 86.393 368.922 86.773 369.625 87.02C371.145 87.609 371.544 88.217 371.544 89.243C371.544 91.029 369.929 92.055 367.402 92.055C364.685 92.055 362.975 90.896 362.386 88.597L358.301 89.243C359.137 93.347 362.329 95.551 367.326 95.551ZM377.534 78.204H381.467V89.452C381.467 92.929 383.69 95 387.414 95H391.556V91.428H388.288C386.274 91.428 385.457 90.592 385.457 88.559V78.204H391.556V74.48H385.457V67.64H381.467V74.48H377.534V78.204ZM404.237 95.57C410.355 95.57 414.307 91.162 414.307 84.721C414.307 78.337 410.374 73.91 404.237 73.91C398.157 73.91 394.186 78.318 394.186 84.721C394.186 91.124 398.119 95.57 404.237 95.57ZM404.237 91.827C400.475 91.827 398.404 89.129 398.404 84.721C398.404 80.351 400.399 77.653 404.237 77.653C408.037 77.653 410.089 80.313 410.089 84.721C410.089 89.091 408.037 91.827 404.237 91.827ZM427.316 95L434.764 74.48H430.755L425.302 90.041L419.849 74.48H415.84L423.288 95H427.316Z" fill="#79FF39"/>
<path d="M223.188 158V147.056H227.64V145.04H216.6V147.056H221.052V158H223.188ZM233.79 163.76L240.846 145.04H238.674L234.882 155.24L230.838 145.04H228.594L233.85 157.952L231.714 163.76H233.79ZM248.336 158V147.056H252.788V145.04H241.748V147.056H246.2V158H248.336ZM265.328 158.36C268.004 158.36 269.96 157.052 270.872 154.628L268.712 154.064C268.136 155.516 267.032 156.332 265.328 156.332C262.748 156.332 261.416 154.412 261.416 151.52C261.416 148.592 262.76 146.708 265.328 146.708C266.912 146.708 268.208 147.584 268.76 149.084L270.872 148.448C270.188 146.12 268.088 144.68 265.352 144.68C261.512 144.68 259.148 147.404 259.148 151.52C259.148 155.588 261.476 158.36 265.328 158.36ZM278.429 158.36C281.105 158.36 283.061 157.052 283.973 154.628L281.813 154.064C281.237 155.516 280.133 156.332 278.429 156.332C275.849 156.332 274.517 154.412 274.517 151.52C274.517 148.592 275.861 146.708 278.429 146.708C280.013 146.708 281.309 147.584 281.861 149.084L283.973 148.448C283.289 146.12 281.189 144.68 278.453 144.68C274.613 144.68 272.249 147.404 272.249 151.52C272.249 155.588 274.577 158.36 278.429 158.36ZM300.426 158V145.04H298.29V158H300.426ZM292.23 158C295.29 158 296.814 156.236 296.814 153.896C296.814 151.556 295.29 149.804 292.23 149.804H288.558V145.04H286.422V158H292.23ZM288.558 156.188V151.604H291.954C293.814 151.604 294.666 152.576 294.666 153.896C294.666 155.216 293.814 156.188 291.954 156.188H288.558ZM302.589 158.168C303.009 158.3 303.405 158.36 303.765 158.36C305.817 158.36 306.861 156.272 306.861 151.676V147.056H312.261V158H314.397V145.04H304.857V151.076C304.857 154.436 304.461 156.404 303.129 156.404C302.961 156.404 302.781 156.368 302.589 156.308V158.168ZM317.746 158H319.882V151.76L325.774 158H328.762L322.366 151.52L328.09 145.04H325.318L319.882 151.28V145.04H317.746V158ZM338.441 145.04L332.093 154.652V145.04H329.957V158H332.093L338.441 148.388V158H340.577V145.04H338.441ZM350.867 158V149.204L354.347 156.068H356.147L359.627 149.204V158H361.763V145.04H359.627L355.247 153.632L350.867 145.04H348.731V158H350.867ZM370.693 156.356C368.365 156.356 366.889 154.796 366.697 152.12H376.633C376.825 147.512 374.617 144.68 370.645 144.68C366.889 144.68 364.405 147.356 364.405 151.52C364.405 155.636 366.901 158.36 370.693 158.36C373.333 158.36 375.397 157.064 376.417 154.76L374.353 154.076C373.645 155.54 372.481 156.356 370.693 156.356ZM366.745 150.404C367.057 148.004 368.449 146.624 370.645 146.624C372.865 146.624 374.221 147.98 374.413 150.404H366.745ZM381.429 158V152.528H388.245V158H390.381V145.04H388.245V150.512H381.429V145.04H379.293V158H381.429ZM395.375 158L397.691 153.236H401.387V158H403.523V145.04H397.715C394.655 145.04 393.131 146.792 393.131 149.132C393.131 150.86 393.947 152.264 395.603 152.888L393.131 158H395.375ZM401.387 146.84V151.424H397.991C396.131 151.424 395.279 150.452 395.279 149.132C395.279 147.812 396.131 146.84 397.991 146.84H401.387ZM417.703 158.36C421.555 158.36 423.955 155.576 423.955 151.508C423.955 147.5 421.591 144.68 417.703 144.68C414.235 144.68 411.907 146.972 411.511 150.452H409.015V145.04H406.879V158H409.015V152.588H411.511C411.907 156.02 414.175 158.36 417.703 158.36ZM417.703 156.332C415.087 156.332 413.731 154.436 413.731 151.508C413.731 148.676 414.991 146.708 417.703 146.708C420.355 146.708 421.687 148.592 421.687 151.508C421.687 154.364 420.379 156.332 417.703 156.332ZM431.805 158V147.056H436.257V145.04H425.217V147.056H429.669V158H431.805ZM443.757 158.36C446.433 158.36 448.389 157.052 449.301 154.628L447.141 154.064C446.565 155.516 445.461 156.332 443.757 156.332C441.177 156.332 439.845 154.412 439.845 151.52C439.845 148.592 441.189 146.708 443.757 146.708C445.341 146.708 446.637 147.584 447.189 149.084L449.301 148.448C448.617 146.12 446.517 144.68 443.781 144.68C439.941 144.68 437.577 147.404 437.577 151.52C437.577 155.588 439.905 158.36 443.757 158.36ZM453.382 158L455.698 153.236H459.394V158H461.53V145.04H455.722C452.662 145.04 451.138 146.792 451.138 149.132C451.138 150.86 451.954 152.264 453.61 152.888L451.138 158H453.382ZM459.394 146.84V151.424H455.998C454.138 151.424 453.286 150.452 453.286 149.132C453.286 147.812 454.138 146.84 455.998 146.84H459.394ZM474.899 158.372C478.559 158.396 481.019 155.912 481.019 152.108C481.019 148.412 478.751 145.928 475.451 145.928C473.603 145.928 472.115 146.624 471.119 148.184C471.335 145.676 471.827 144.572 473.039 143.852C474.839 142.784 477.131 143.144 480.407 142.376L480.251 140.36C476.855 141.152 474.107 140.744 471.755 142.268C470.075 143.36 469.451 145.196 469.139 147.788C468.983 149.06 468.959 150.488 469.019 151.532C469.199 155.804 471.227 158.348 474.899 158.372ZM474.971 156.344C472.691 156.344 471.299 154.724 471.299 152.18C471.299 149.576 472.655 147.968 475.079 147.968C477.419 147.968 478.763 149.6 478.763 152.18C478.763 154.712 477.383 156.344 474.971 156.344ZM497.653 158V145.04H495.517V158H497.653ZM489.457 158C492.517 158 494.041 156.236 494.041 153.896C494.041 151.556 492.517 149.804 489.457 149.804H485.785V145.04H483.649V158H489.457ZM485.785 156.188V151.604H489.181C491.041 151.604 491.893 152.576 491.893 153.896C491.893 155.216 491.041 156.188 489.181 156.188H485.785ZM506.476 158.36C509.152 158.36 511.108 157.052 512.02 154.628L509.86 154.064C509.284 155.516 508.18 156.332 506.476 156.332C503.896 156.332 502.564 154.412 502.564 151.52C502.564 148.592 503.908 146.708 506.476 146.708C508.06 146.708 509.356 147.584 509.908 149.084L512.02 148.448C511.336 146.12 509.236 144.68 506.5 144.68C502.66 144.68 500.296 147.404 500.296 151.52C500.296 155.588 502.624 158.36 506.476 158.36ZM519.508 158V147.056H523.96V145.04H512.92V147.056H517.372V158H519.508ZM528.371 163.76V155.972C529.199 157.46 530.591 158.36 532.703 158.36C536.267 158.36 538.595 155.576 538.595 151.508C538.595 147.5 536.291 144.68 532.703 144.68C530.603 144.68 529.199 145.568 528.371 147.068V145.04H526.235V163.76H528.371ZM532.343 156.332C529.727 156.332 528.371 154.436 528.371 151.508C528.371 148.676 529.631 146.708 532.343 146.708C534.995 146.708 536.327 148.592 536.327 151.508C536.327 154.364 535.019 156.332 532.343 156.332ZM546.755 158.36C550.607 158.36 553.007 155.576 553.007 151.508C553.007 147.476 550.631 144.68 546.755 144.68C542.939 144.68 540.515 147.452 540.515 151.508C540.515 155.54 542.903 158.36 546.755 158.36ZM546.755 156.332C544.175 156.332 542.783 154.472 542.783 151.508C542.783 148.58 544.115 146.708 546.755 146.708C549.371 146.708 550.739 148.532 550.739 151.508C550.739 154.436 549.371 156.332 546.755 156.332Z" fill="white" fill-opacity="0.1"/>
<rect x="0.5" y="0.5" width="1178" height="617" rx="31.5" stroke="white" stroke-opacity="0.12"/>
</svg>
