<svg width="360" height="53" viewBox="0 0 360 53" fill="none" xmlns="http://www.w3.org/2000/svg">
<path d="M7.66614 34.7249L0.295886 27.1602C0.188291 27.0502 0.112078 26.9447 0.0672468 26.8439C0.0224156 26.743 0 26.6284 0 26.5C0 26.3716 0.0224156 26.257 0.0672468 26.1561C0.112078 26.0553 0.188291 25.9498 0.295886 25.8398L7.69304 18.2476C7.87236 18.0825 8.08307 18 8.32516 18C8.56725 18 8.77795 18.0917 8.95728 18.2751C9.15454 18.4768 9.25316 18.7015 9.25316 18.949C9.25316 19.1966 9.15454 19.4121 8.95728 19.5955L3.14715 25.5647H16.0854C16.3544 25.5647 16.5741 25.6518 16.7445 25.8261C16.9148 26.0003 17 26.2249 17 26.5C17 26.7751 16.9148 26.9997 16.7445 27.1739C16.5741 27.3482 16.3544 27.4353 16.0854 27.4353H3.14715L8.98418 33.432C9.1635 33.5971 9.25316 33.8034 9.25316 34.051C9.25316 34.2985 9.15454 34.5232 8.95728 34.7249C8.77795 34.9083 8.56725 35 8.32516 35C8.08307 35 7.8634 34.9083 7.66614 34.7249Z" fill="white"/>
<rect x="25" width="377" height="53" rx="26.5" fill="white" fill-opacity="0.05"/>
<path d="M63.852 22.68C61.008 22.68 59.088 23.964 58.428 26.316L60.744 26.928C61.164 25.56 62.136 24.924 63.828 24.924C65.736 24.924 66.672 25.812 66.708 27.792L63.144 28.236C59.868 28.644 57.96 29.916 57.96 32.52C57.96 34.86 59.676 36.36 62.352 36.36C64.368 36.36 65.832 35.592 66.708 34.104V36H69.228V28.26C69.228 24.492 67.464 22.68 63.852 22.68ZM66.708 29.688V29.772C66.708 30.348 66.708 31.116 66.468 31.74C66.06 33.216 64.728 34.236 62.928 34.236C61.284 34.236 60.432 33.588 60.432 32.328C60.432 31.044 61.356 30.348 63.456 30.096L66.708 29.688ZM81.6561 18.72V24.924C80.8521 23.52 79.5201 22.68 77.5041 22.68C74.0241 22.68 71.6241 25.476 71.6241 29.532C71.6241 33.54 74.0001 36.36 77.5041 36.36C79.5201 36.36 80.8521 35.52 81.6561 34.116V36H84.1761V18.72H81.6561ZM77.9841 25.044C80.4081 25.044 81.6561 26.796 81.6561 29.532C81.6561 32.172 80.5041 33.996 77.9841 33.996C75.5241 33.996 74.2881 32.244 74.2881 29.532C74.2881 26.88 75.5001 25.044 77.9841 25.044ZM93.0756 36.36C95.8596 36.36 97.8756 34.98 98.7276 32.436L96.1836 31.836C95.6676 33.216 94.6956 33.996 93.0756 33.996C90.6996 33.996 89.4756 32.196 89.4756 29.52C89.4756 26.844 90.6756 25.044 93.0756 25.044C94.5276 25.044 95.7396 25.896 96.2316 27.348L98.7276 26.628C98.0796 24.192 95.9436 22.68 93.1116 22.68C89.2236 22.68 86.8116 25.464 86.8116 29.52C86.8116 33.528 89.1636 36.36 93.0756 36.36ZM103.787 36V33.348H101.135V36H103.787ZM112.743 22.68C109.899 22.68 107.979 23.964 107.319 26.316L109.635 26.928C110.055 25.56 111.027 24.924 112.719 24.924C114.627 24.924 115.563 25.812 115.599 27.792L112.035 28.236C108.759 28.644 106.851 29.916 106.851 32.52C106.851 34.86 108.567 36.36 111.243 36.36C113.259 36.36 114.723 35.592 115.599 34.104V36H118.119V28.26C118.119 24.492 116.355 22.68 112.743 22.68ZM115.599 29.688V29.772C115.599 30.348 115.599 31.116 115.359 31.74C114.951 33.216 113.619 34.236 111.819 34.236C110.175 34.236 109.323 33.588 109.323 32.328C109.323 31.044 110.247 30.348 112.347 30.096L115.599 29.688ZM126.779 36.36C129.563 36.36 131.579 34.98 132.431 32.436L129.887 31.836C129.371 33.216 128.399 33.996 126.779 33.996C124.403 33.996 123.179 32.196 123.179 29.52C123.179 26.844 124.379 25.044 126.779 25.044C128.231 25.044 129.443 25.896 129.935 27.348L132.431 26.628C131.783 24.192 129.647 22.68 126.815 22.68C122.927 22.68 120.515 25.464 120.515 29.52C120.515 33.528 122.867 36.36 126.779 36.36ZM139.243 18.72L134.635 36H137.167L141.775 18.72H139.243Z" fill="white"/>
<path d="M158.803 34.104V36H161.011V28.944C161.011 24.948 158.467 22.68 154.003 22.68C148.675 22.68 145.147 26.268 145.147 31.716C145.147 37.344 148.639 41.004 154.003 41.004C156.019 41.004 157.963 40.416 159.439 39.264L158.143 37.248C157.135 38.148 155.599 38.628 153.979 38.628C149.983 38.628 147.559 36.036 147.559 31.716C147.559 27.636 150.115 24.924 153.979 24.924C156.523 24.924 158.095 25.932 158.455 27.804L154.927 28.236C152.191 28.584 149.755 29.508 149.755 32.52C149.755 34.728 151.339 36.36 154.147 36.36C156.259 36.36 157.711 35.628 158.803 34.104ZM158.515 29.688V29.772C158.515 30.348 158.491 31.116 158.263 31.74C157.843 33.216 156.523 34.236 154.711 34.236C153.031 34.236 152.227 33.552 152.227 32.328C152.227 31.044 153.139 30.36 155.251 30.096L158.515 29.688ZM165.806 25.392V36H168.314V25.392H171.59V23.04H168.314V22.26C168.314 20.916 168.794 20.424 170.102 20.424H171.59V18.36H169.646C166.97 18.36 165.806 19.536 165.806 22.212V23.04H163.658V25.392H165.806ZM178.321 22.68C175.477 22.68 173.557 23.964 172.897 26.316L175.213 26.928C175.633 25.56 176.605 24.924 178.297 24.924C180.205 24.924 181.141 25.812 181.177 27.792L177.613 28.236C174.337 28.644 172.429 29.916 172.429 32.52C172.429 34.86 174.145 36.36 176.821 36.36C178.837 36.36 180.301 35.592 181.177 34.104V36H183.697V28.26C183.697 24.492 181.933 22.68 178.321 22.68ZM181.177 29.688V29.772C181.177 30.348 181.177 31.116 180.937 31.74C180.529 33.216 179.197 34.236 177.397 34.236C175.753 34.236 174.901 33.588 174.901 32.328C174.901 31.044 175.825 30.348 177.925 30.096L181.177 29.688ZM189.093 23.04H186.573V30.66C186.573 34.572 188.649 36.36 191.757 36.36C193.869 36.36 195.045 35.4 195.669 34.212V36H198.189V23.04H195.669V30.168C195.669 32.724 194.397 33.996 192.357 33.996C190.305 33.996 189.093 32.712 189.093 30.168V23.04ZM206.512 36.348C209.764 36.348 211.744 34.8 211.744 32.256C211.744 30.468 210.796 29.46 208.36 28.728C207.436 28.452 206.596 28.2 205.924 28.008C204.784 27.66 203.74 27.336 203.74 26.436C203.74 25.524 204.796 24.876 206.212 24.876C207.82 24.876 208.924 25.668 209.104 26.952L211.672 26.484C211.336 24.168 209.236 22.68 206.296 22.68C203.272 22.68 201.232 24.228 201.232 26.532C201.232 28.704 202.936 29.568 205.768 30.3C206.752 30.564 207.52 30.804 207.964 30.96C208.924 31.332 209.176 31.716 209.176 32.364C209.176 33.492 208.156 34.14 206.56 34.14C204.844 34.14 203.764 33.408 203.392 31.956L200.812 32.364C201.34 34.956 203.356 36.348 206.512 36.348ZM212.959 25.392H215.443V32.496C215.443 34.692 216.847 36 219.199 36H221.815V33.744H219.751C218.479 33.744 217.963 33.216 217.963 31.932V25.392H221.815V23.04H217.963V18.72H215.443V23.04H212.959V25.392ZM229.824 36.36C233.688 36.36 236.184 33.576 236.184 29.508C236.184 25.476 233.7 22.68 229.824 22.68C225.984 22.68 223.476 25.464 223.476 29.508C223.476 33.552 225.96 36.36 229.824 36.36ZM229.824 33.996C227.448 33.996 226.14 32.292 226.14 29.508C226.14 26.748 227.4 25.044 229.824 25.044C232.224 25.044 233.52 26.724 233.52 29.508C233.52 32.268 232.224 33.996 229.824 33.996ZM244.4 36L249.104 23.04H246.572L243.128 32.868L239.684 23.04H237.152L241.856 36H244.4Z" fill="#79FF39"/>
</svg>
