<svg width="902" height="618" viewBox="0 0 902 618" fill="none" xmlns="http://www.w3.org/2000/svg">
<g clip-path="url(#clip0_1104_4870)">
<rect width="902" height="618" rx="32" fill="black"/>
<path d="M57.25 94.9469L43.55 81.1969C43.35 80.9969 43.2083 80.8052 43.125 80.6219C43.0417 80.4385 43 80.2302 43 79.9969C43 79.7635 43.0417 79.5552 43.125 79.3719C43.2083 79.1885 43.35 78.9969 43.55 78.7969L57.3 64.9969C57.6333 64.6969 58.025 64.5469 58.475 64.5469C58.925 64.5469 59.3167 64.7135 59.65 65.0469C60.0167 65.4135 60.2 65.8219 60.2 66.2719C60.2 66.7219 60.0167 67.1135 59.65 67.4469L48.85 78.2969H72.9C73.4 78.2969 73.8083 78.4552 74.125 78.7719C74.4417 79.0885 74.6 79.4969 74.6 79.9969C74.6 80.4969 74.4417 80.9052 74.125 81.2219C73.8083 81.5385 73.4 81.6969 72.9 81.6969H48.85L59.7 92.5969C60.0333 92.8969 60.2 93.2719 60.2 93.7219C60.2 94.1719 60.0167 94.5802 59.65 94.9469C59.3167 95.2802 58.925 95.4469 58.475 95.4469C58.025 95.4469 57.6167 95.2802 57.25 94.9469Z" fill="white"/>
<rect x="98.5996" y="45" width="974" height="70" rx="35" fill="white" fill-opacity="0.05"/>
<path d="M141.449 73.91C136.946 73.91 133.906 75.943 132.861 79.667L136.528 80.636C137.193 78.47 138.732 77.463 141.411 77.463C144.432 77.463 145.914 78.869 145.971 82.004L140.328 82.707C135.141 83.353 132.12 85.367 132.12 89.49C132.12 93.195 134.837 95.57 139.074 95.57C142.266 95.57 144.584 94.354 145.971 91.998V95H149.961V82.745C149.961 76.779 147.168 73.91 141.449 73.91ZM145.971 85.006V85.139C145.971 86.051 145.971 87.267 145.591 88.255C144.945 90.592 142.836 92.207 139.986 92.207C137.383 92.207 136.034 91.181 136.034 89.186C136.034 87.153 137.497 86.051 140.822 85.652L145.971 85.006ZM169.638 67.64V77.463C168.365 75.24 166.256 73.91 163.064 73.91C157.554 73.91 153.754 78.337 153.754 84.759C153.754 91.105 157.516 95.57 163.064 95.57C166.256 95.57 168.365 94.24 169.638 92.017V95H173.628V67.64H169.638ZM163.824 77.653C167.662 77.653 169.638 80.427 169.638 84.759C169.638 88.939 167.814 91.827 163.824 91.827C159.929 91.827 157.972 89.053 157.972 84.759C157.972 80.56 159.891 77.653 163.824 77.653ZM187.719 95.57C192.127 95.57 195.319 93.385 196.668 89.357L192.64 88.407C191.823 90.592 190.284 91.827 187.719 91.827C183.957 91.827 182.019 88.977 182.019 84.74C182.019 80.503 183.919 77.653 187.719 77.653C190.018 77.653 191.937 79.002 192.716 81.301L196.668 80.161C195.642 76.304 192.26 73.91 187.776 73.91C181.62 73.91 177.801 78.318 177.801 84.74C177.801 91.086 181.525 95.57 187.719 95.57ZM204.68 95V90.801H200.481V95H204.68ZM218.859 73.91C214.356 73.91 211.316 75.943 210.271 79.667L213.938 80.636C214.603 78.47 216.142 77.463 218.821 77.463C221.842 77.463 223.324 78.869 223.381 82.004L217.738 82.707C212.551 83.353 209.53 85.367 209.53 89.49C209.53 93.195 212.247 95.57 216.484 95.57C219.676 95.57 221.994 94.354 223.381 91.998V95H227.371V82.745C227.371 76.779 224.578 73.91 218.859 73.91ZM223.381 85.006V85.139C223.381 86.051 223.381 87.267 223.001 88.255C222.355 90.592 220.246 92.207 217.396 92.207C214.793 92.207 213.444 91.181 213.444 89.186C213.444 87.153 214.907 86.051 218.232 85.652L223.381 85.006ZM241.083 95.57C245.491 95.57 248.683 93.385 250.032 89.357L246.004 88.407C245.187 90.592 243.648 91.827 241.083 91.827C237.321 91.827 235.383 88.977 235.383 84.74C235.383 80.503 237.283 77.653 241.083 77.653C243.382 77.653 245.301 79.002 246.08 81.301L250.032 80.161C249.006 76.304 245.624 73.91 241.14 73.91C234.984 73.91 231.165 78.318 231.165 84.74C231.165 91.086 234.889 95.57 241.083 95.57ZM260.818 67.64L253.522 95H257.531L264.827 67.64H260.818Z" fill="white"/>
<path d="M291.787 91.998V95H295.283V83.828C295.283 77.501 291.255 73.91 284.187 73.91C275.751 73.91 270.165 79.591 270.165 88.217C270.165 97.128 275.694 102.923 284.187 102.923C287.379 102.923 290.457 101.992 292.794 100.168L290.742 96.976C289.146 98.401 286.714 99.161 284.149 99.161C277.822 99.161 273.984 95.057 273.984 88.217C273.984 81.757 278.031 77.463 284.149 77.463C288.177 77.463 290.666 79.059 291.236 82.023L285.65 82.707C281.318 83.258 277.461 84.721 277.461 89.49C277.461 92.986 279.969 95.57 284.415 95.57C287.759 95.57 290.058 94.411 291.787 91.998ZM291.331 85.006V85.139C291.331 86.051 291.293 87.267 290.932 88.255C290.267 90.592 288.177 92.207 285.308 92.207C282.648 92.207 281.375 91.124 281.375 89.186C281.375 87.153 282.819 86.07 286.163 85.652L291.331 85.006ZM302.875 78.204V95H306.846V78.204H312.033V74.48H306.846V73.245C306.846 71.117 307.606 70.338 309.677 70.338H312.033V67.07H308.955C304.718 67.07 302.875 68.932 302.875 73.169V74.48H299.474V78.204H302.875ZM322.691 73.91C318.188 73.91 315.148 75.943 314.103 79.667L317.77 80.636C318.435 78.47 319.974 77.463 322.653 77.463C325.674 77.463 327.156 78.869 327.213 82.004L321.57 82.707C316.383 83.353 313.362 85.367 313.362 89.49C313.362 93.195 316.079 95.57 320.316 95.57C323.508 95.57 325.826 94.354 327.213 91.998V95H331.203V82.745C331.203 76.779 328.41 73.91 322.691 73.91ZM327.213 85.006V85.139C327.213 86.051 327.213 87.267 326.833 88.255C326.187 90.592 324.078 92.207 321.228 92.207C318.625 92.207 317.276 91.181 317.276 89.186C317.276 87.153 318.739 86.051 322.064 85.652L327.213 85.006ZM339.747 74.48H335.757V86.545C335.757 92.739 339.044 95.57 343.965 95.57C347.309 95.57 349.171 94.05 350.159 92.169V95H354.149V74.48H350.159V85.766C350.159 89.813 348.145 91.827 344.915 91.827C341.666 91.827 339.747 89.794 339.747 85.766V74.48ZM367.326 95.551C372.475 95.551 375.61 93.1 375.61 89.072C375.61 86.241 374.109 84.645 370.252 83.486C368.789 83.049 367.459 82.65 366.395 82.346C364.59 81.795 362.937 81.282 362.937 79.857C362.937 78.413 364.609 77.387 366.851 77.387C369.397 77.387 371.145 78.641 371.43 80.674L375.496 79.933C374.964 76.266 371.639 73.91 366.984 73.91C362.196 73.91 358.966 76.361 358.966 80.009C358.966 83.448 361.664 84.816 366.148 85.975C367.706 86.393 368.922 86.773 369.625 87.02C371.145 87.609 371.544 88.217 371.544 89.243C371.544 91.029 369.929 92.055 367.402 92.055C364.685 92.055 362.975 90.896 362.386 88.597L358.301 89.243C359.137 93.347 362.329 95.551 367.326 95.551ZM377.534 78.204H381.467V89.452C381.467 92.929 383.69 95 387.414 95H391.556V91.428H388.288C386.274 91.428 385.457 90.592 385.457 88.559V78.204H391.556V74.48H385.457V67.64H381.467V74.48H377.534V78.204ZM404.237 95.57C410.355 95.57 414.307 91.162 414.307 84.721C414.307 78.337 410.374 73.91 404.237 73.91C398.157 73.91 394.186 78.318 394.186 84.721C394.186 91.124 398.119 95.57 404.237 95.57ZM404.237 91.827C400.475 91.827 398.404 89.129 398.404 84.721C398.404 80.351 400.399 77.653 404.237 77.653C408.037 77.653 410.089 80.313 410.089 84.721C410.089 89.091 408.037 91.827 404.237 91.827ZM427.316 95L434.764 74.48H430.755L425.302 90.041L419.849 74.48H415.84L423.288 95H427.316Z" fill="#79FF39"/>
</g>
<rect x="0.5" y="0.5" width="901" height="617" rx="31.5" stroke="white" stroke-opacity="0.12"/>
<defs>
<clipPath id="clip0_1104_4870">
<rect width="902" height="618" rx="32" fill="white"/>
</clipPath>
</defs>
</svg>
