<svg width="3799" height="85" viewBox="0 0 3799 85" fill="none" xmlns="http://www.w3.org/2000/svg">
<path d="M10.0897 57V37.128H19.9297V57H26.4577V31.08H3.5617V57H10.0897ZM41.1558 68.52V53.808C42.6678 56.256 45.0918 57.72 48.7878 57.72C55.4118 57.72 60.4998 52.104 60.4998 44.04C60.4998 36.024 55.4118 30.36 48.7878 30.36C45.0918 30.36 42.6678 31.824 41.1558 34.272V31.08H34.6278V68.52H41.1558ZM47.3478 51.624C43.2678 51.624 41.1558 48.696 41.1558 44.04C41.1558 39.528 43.0758 36.456 47.3478 36.456C51.4758 36.456 53.5878 39.432 53.5878 44.04C53.5878 48.504 51.5238 51.624 47.3478 51.624ZM78.9037 51.72C75.5437 51.72 73.3837 49.584 72.8317 45.864H91.0237C91.8157 36.456 87.3037 30.36 78.9037 30.36C71.2237 30.36 65.7997 35.928 65.7997 44.04C65.7997 52.056 71.0797 57.72 78.9037 57.72C84.4717 57.72 88.8397 54.984 90.8077 50.232L84.2797 48.456C83.2717 50.688 81.5677 51.72 78.9037 51.72ZM73.0237 41.016C73.7917 37.896 75.8317 36.12 78.9037 36.12C82.1197 36.12 84.1597 37.944 84.3997 41.016H73.0237ZM95.9628 62.76H102.491V57H117.827V62.76H124.355V50.952H120.995V31.08H100.163V39.552C100.163 43.08 100.307 49.008 98.4828 50.952H95.9628V62.76ZM105.155 50.952C105.803 49.008 106.163 46.032 106.163 42.648V37.128H114.467V50.952H105.155ZM142.012 57.72C148.012 57.72 152.284 54.648 153.772 49.128L147.1 47.736C146.332 50.232 144.94 51.624 142.012 51.624C138.076 51.624 136.06 48.552 136.06 44.04C136.06 39.72 137.884 36.456 142.012 36.456C144.412 36.456 146.476 38.04 147.244 40.728L153.772 39C152.62 33.672 148.204 30.36 142.108 30.36C134.188 30.36 129.148 36.168 129.148 44.04C129.148 51.816 133.948 57.72 142.012 57.72ZM171.699 57V37.128H179.955V31.08H156.915V37.128H165.171V57H171.699ZM196.06 30.36C190.324 30.36 186.388 32.928 184.972 37.608L190.876 39.24C191.644 37.032 193.228 36.072 196.06 36.072C198.94 36.072 200.548 37.416 200.716 40.272L194.212 41.088C187.468 41.928 184.06 44.88 184.06 49.848C184.06 54.552 187.54 57.72 192.7 57.72C196.444 57.72 199.06 56.424 200.716 53.808V57H207.244V41.88C207.244 34.056 203.644 30.36 196.06 30.36ZM200.716 44.928V45.288C200.716 46.44 200.692 47.904 200.092 49.128C199.228 50.88 197.068 52.344 194.332 52.344C191.764 52.344 190.444 51.312 190.444 49.272C190.444 47.232 192.004 46.008 195.172 45.624L200.716 44.928ZM227.332 57C233.26 57 236.476 54.456 236.476 49.776C236.476 46.56 234.868 44.256 232.276 43.56C234.34 42.744 235.612 40.92 235.612 38.064C235.612 33.576 232.324 31.08 226.372 31.08H214.876V57H227.332ZM226.444 36.12C228.244 36.12 229.516 36.792 229.516 38.712C229.516 40.632 228.244 41.304 226.444 41.304H220.924V36.12H226.444ZM220.924 51.96V46.248H227.332C229.132 46.248 230.404 47.184 230.404 49.104C230.404 51.024 229.132 51.96 227.332 51.96H220.924ZM240.308 57.24C241.412 57.552 242.444 57.72 243.404 57.72C247.964 57.72 250.58 53.904 250.58 45.312V37.128H258.644V57H265.172V31.08H244.58V42.912C244.58 48.888 243.884 51.888 241.436 51.888C241.1 51.888 240.716 51.84 240.308 51.72V57.24ZM297.663 57.72C305.439 57.72 310.815 52.104 310.815 44.04C310.815 36.024 305.487 30.36 297.663 30.36C291.063 30.36 286.119 34.464 284.871 40.776H279.831V31.08H273.303V57H279.831V47.304H284.871C286.119 53.544 290.943 57.72 297.663 57.72ZM297.663 51.624C293.583 51.624 291.471 48.696 291.471 44.04C291.471 39.528 293.391 36.456 297.663 36.456C301.791 36.456 303.903 39.432 303.903 44.04C303.903 48.504 301.839 51.624 297.663 51.624ZM341.214 57V37.128H349.47V31.08H326.43V37.128H334.686V57H341.214ZM367.147 51.72C363.787 51.72 361.627 49.584 361.075 45.864H379.267C380.059 36.456 375.547 30.36 367.147 30.36C359.467 30.36 354.043 35.928 354.043 44.04C354.043 52.056 359.323 57.72 367.147 57.72C372.715 57.72 377.083 54.984 379.051 50.232L372.523 48.456C371.515 50.688 369.811 51.72 367.147 51.72ZM361.267 41.016C362.035 37.896 364.075 36.12 367.147 36.12C370.363 36.12 372.403 37.944 372.643 41.016H361.267ZM397.047 57.768C404.487 57.84 409.815 52.704 409.815 45.048C409.815 37.848 405.303 32.856 398.823 32.856C395.727 32.856 392.775 33.96 390.951 36.648C391.215 33.144 391.983 31.56 394.263 30.336C397.743 28.488 401.271 29.184 408.615 27.744L408.159 21.744C401.751 23.064 395.007 22.44 390.135 25.752C386.367 28.32 385.383 32.64 384.927 36.912C384.639 39.6 384.591 42.768 384.807 44.952C385.527 52.656 389.679 57.672 397.047 57.768ZM397.335 51.672C393.711 51.672 391.719 49.272 391.719 45.336C391.719 41.52 393.663 39 397.335 39C400.887 39 402.951 41.52 402.951 45.336C402.951 49.056 401.007 51.672 397.335 51.672ZM421.911 57L426.375 48.456H430.839V57H437.367V31.08H425.391C418.551 31.08 415.527 35.088 415.527 39.768C415.527 42.984 416.967 45.912 420.087 47.4L415.095 57H421.911ZM430.839 36.288V43.248H426.423C423.303 43.248 422.079 41.688 422.079 39.768C422.079 37.848 423.303 36.288 426.423 36.288H430.839ZM463.067 57V43.296L467.867 52.464H472.859L477.659 43.296V57H484.187V31.08H477.659L470.363 45.024L463.067 31.08H456.539V57H463.067ZM508.9 31.08L498.82 47.016V31.08H492.292V57H498.82L508.9 41.064V57H515.428V31.08H508.9ZM530.12 68.52V53.808C531.632 56.256 534.056 57.72 537.752 57.72C544.376 57.72 549.464 52.104 549.464 44.04C549.464 36.024 544.376 30.36 537.752 30.36C534.056 30.36 531.632 31.824 530.12 34.272V31.08H523.592V68.52H530.12ZM536.312 51.624C532.232 51.624 530.12 48.696 530.12 44.04C530.12 39.528 532.04 36.456 536.312 36.456C540.44 36.456 542.552 39.432 542.552 44.04C542.552 48.504 540.488 51.624 536.312 51.624ZM565.095 68.52L579.735 31.08H573.207L566.439 48.72L559.623 31.08H552.855L563.319 56.784L559.047 68.52H565.095Z" fill="white"/>
<rect x="604" y="13" width="59" height="59" rx="29.5" fill="#FD7800"/>
<path d="M644.408 43.0085C642.118 37.0585 633.966 36.7377 635.935 28.0898C636.081 27.4481 635.396 26.9523 634.841 27.2877C629.548 30.4085 625.741 36.6648 628.935 44.8606C629.198 45.5314 628.41 46.1585 627.841 45.721C625.202 43.7231 624.925 40.8502 625.158 38.7939C625.246 38.0356 624.254 37.671 623.831 38.2981C622.839 39.8148 621.833 42.2648 621.833 45.9543C622.387 54.121 629.285 56.6293 631.764 56.9502C635.308 57.4023 639.143 56.746 641.9 54.2231C644.933 51.4085 646.041 46.9168 644.408 43.0085ZM630.875 50.3439C632.975 49.8335 634.054 48.3168 634.346 46.9752C634.827 44.8898 632.946 42.8481 634.214 39.5523C634.696 42.2793 638.983 43.9856 638.983 46.9606C639.1 50.6502 635.104 53.8148 630.875 50.3439Z" fill="#260101" fill-opacity="0.44"/>
<path d="M644.408 43.0085C642.118 37.0585 633.966 36.7377 635.935 28.0898C636.081 27.4481 635.396 26.9523 634.841 27.2877C629.548 30.4085 625.741 36.6648 628.935 44.8606C629.198 45.5314 628.41 46.1585 627.841 45.721C625.202 43.7231 624.925 40.8502 625.158 38.7939C625.246 38.0356 624.254 37.671 623.831 38.2981C622.839 39.8148 621.833 42.2648 621.833 45.9543C622.387 54.121 629.285 56.6293 631.764 56.9502C635.308 57.4023 639.143 56.746 641.9 54.2231C644.933 51.4085 646.041 46.9168 644.408 43.0085ZM630.875 50.3439C632.975 49.8335 634.054 48.3168 634.346 46.9752C634.827 44.8898 632.946 42.8481 634.214 39.5523C634.696 42.2793 638.983 43.9856 638.983 46.9606C639.1 50.6502 635.104 53.8148 630.875 50.3439Z" fill="#260101" fill-opacity="0.44"/>
<path d="M702.314 57.72C710.09 57.72 715.466 52.128 715.466 44.04C715.466 35.952 710.09 30.36 702.314 30.36C694.586 30.36 689.21 35.976 689.21 44.04C689.21 52.128 694.562 57.72 702.314 57.72ZM702.314 51.624C698.378 51.624 696.122 48.864 696.122 44.04C696.122 39.168 698.33 36.456 702.314 36.456C706.274 36.456 708.554 39.216 708.554 44.04C708.554 48.816 706.25 51.624 702.314 51.624ZM720.263 62.76H726.791V57H742.127V62.76H748.655V50.952H745.295V31.08H724.463V39.552C724.463 43.08 724.607 49.008 722.783 50.952H720.263V62.76ZM729.455 50.952C730.103 49.008 730.463 46.032 730.463 42.648V37.128H738.767V50.952H729.455ZM761.369 57V47.064H772.025V57H778.553V31.08H772.025V41.016H761.369V31.08H754.841V57H761.369ZM798.368 57.72C806.144 57.72 811.52 52.128 811.52 44.04C811.52 35.952 806.144 30.36 798.368 30.36C790.64 30.36 785.264 35.976 785.264 44.04C785.264 52.128 790.616 57.72 798.368 57.72ZM798.368 51.624C794.432 51.624 792.176 48.864 792.176 44.04C792.176 39.168 794.384 36.456 798.368 36.456C802.328 36.456 804.608 39.216 804.608 44.04C804.608 48.816 802.304 51.624 798.368 51.624ZM830.622 28.2C832.014 28.2 833.286 27.864 834.462 27.168C836.79 25.824 838.254 23.352 838.254 20.568H833.214C833.214 22.008 832.062 23.16 830.622 23.16C829.182 23.16 828.03 22.008 828.03 20.568H822.99C822.99 21.96 823.326 23.232 824.022 24.408C825.366 26.736 827.838 28.2 830.622 28.2ZM834.798 31.08L824.718 47.016V31.08H818.19V57H824.718L834.798 41.064V57H841.326V31.08H834.798ZM871.964 57.72C877.964 57.72 882.236 54.648 883.724 49.128L877.052 47.736C876.284 50.232 874.892 51.624 871.964 51.624C868.028 51.624 866.012 48.552 866.012 44.04C866.012 39.72 867.836 36.456 871.964 36.456C874.364 36.456 876.428 38.04 877.196 40.728L883.724 39C882.572 33.672 878.156 30.36 872.06 30.36C864.14 30.36 859.1 36.168 859.1 44.04C859.1 51.816 863.9 57.72 871.964 57.72ZM900.685 57.72C906.685 57.72 910.957 54.648 912.445 49.128L905.773 47.736C905.005 50.232 903.613 51.624 900.685 51.624C896.749 51.624 894.733 48.552 894.733 44.04C894.733 39.72 896.557 36.456 900.685 36.456C903.085 36.456 905.149 38.04 905.917 40.728L912.445 39C911.293 33.672 906.877 30.36 900.781 30.36C892.861 30.36 887.821 36.168 887.821 44.04C887.821 51.816 892.621 57.72 900.685 57.72ZM949.597 57V31.08H943.069V57H949.597ZM930.661 57C937.501 57 940.525 52.992 940.525 48.312C940.525 43.632 937.501 39.624 930.661 39.624H925.213V31.08H918.685V57H930.661ZM925.213 51.792V44.832H929.629C932.749 44.832 933.973 46.392 933.973 48.312C933.973 50.232 932.749 51.792 929.629 51.792H925.213ZM955.366 57.24C956.47 57.552 957.502 57.72 958.462 57.72C963.022 57.72 965.638 53.904 965.638 45.312V37.128H973.702V57H980.23V31.08H959.638V42.912C959.638 48.888 958.942 51.888 956.494 51.888C956.158 51.888 955.774 51.84 955.366 51.72V57.24ZM988.361 57H994.889V44.496L1003.87 57H1012.36L1002.38 44.04L1011.74 31.08H1003.67L994.889 43.56V31.08H988.361V57ZM1027.39 57.72C1035.16 57.72 1040.54 52.128 1040.54 44.04C1040.54 35.952 1035.16 30.36 1027.39 30.36C1019.66 30.36 1014.28 35.976 1014.28 44.04C1014.28 52.128 1019.64 57.72 1027.39 57.72ZM1027.39 51.624C1023.45 51.624 1021.2 48.864 1021.2 44.04C1021.2 39.168 1023.4 36.456 1027.39 36.456C1031.35 36.456 1033.63 39.216 1033.63 44.04C1033.63 48.816 1031.32 51.624 1027.39 51.624ZM1059.64 28.2C1061.03 28.2 1062.31 27.864 1063.48 27.168C1065.81 25.824 1067.27 23.352 1067.27 20.568H1062.23C1062.23 22.008 1061.08 23.16 1059.64 23.16C1058.2 23.16 1057.05 22.008 1057.05 20.568H1052.01C1052.01 21.96 1052.35 23.232 1053.04 24.408C1054.39 26.736 1056.86 28.2 1059.64 28.2ZM1063.82 31.08L1053.74 47.016V31.08H1047.21V57H1053.74L1063.82 41.064V57H1070.35V31.08H1063.82Z" fill="white"/>
<rect x="1098" y="13" width="59" height="59" rx="16" fill="#00FF29"/>
<g clip-path="url(#clip0_1183_3307)">
<path d="M1116.78 51.6888C1115.3 49.5232 1115.76 46.5655 1117.62 44.709L1121.25 41.0828C1121.89 40.4393 1121.89 39.375 1121.25 38.7315C1120.6 38.0881 1119.54 38.0881 1118.89 38.7317L1115.39 42.2342C1112.16 45.4643 1111.64 50.7115 1114.55 54.2382C1117.88 58.2847 1123.88 58.4946 1127.49 54.8808L1131.27 51.1061C1131.91 50.4625 1131.91 49.3982 1131.27 48.7548C1130.63 48.1113 1129.56 48.1114 1128.92 48.7549L1125.14 52.5297C1122.78 54.8935 1118.76 54.6092 1116.78 51.6888ZM1125.02 47.4558L1132.45 40.0301C1133.13 39.3494 1133.13 38.2357 1132.45 37.5551C1131.76 36.8745 1130.65 36.8746 1129.97 37.5552L1122.54 44.9809C1121.86 45.6616 1121.86 46.7754 1122.54 47.456C1123.22 48.1366 1124.34 48.1365 1125.02 47.4558ZM1127.22 30.4025L1123.72 33.905C1123.08 34.5486 1123.08 35.6128 1123.72 36.2563C1124.36 36.8998 1125.43 36.8997 1126.07 36.2561L1129.7 32.6299C1131.55 30.7735 1134.51 30.3154 1136.68 31.7879C1139.6 33.7677 1139.88 37.7897 1137.52 40.1535L1133.74 43.9282C1133.1 44.5718 1133.1 45.6361 1133.74 46.2795C1134.39 46.923 1135.45 46.9229 1136.1 46.2794L1139.87 42.5046C1143.48 38.8908 1143.27 32.8888 1139.24 29.5478C1135.71 26.6398 1130.45 27.1724 1127.22 30.4025Z" fill="#214B0D"/>
</g>
<path d="M1191.31 57V37.128H1201.15V57H1207.68V31.08H1184.79V57H1191.31ZM1227.52 57.72C1235.29 57.72 1240.67 52.128 1240.67 44.04C1240.67 35.952 1235.29 30.36 1227.52 30.36C1219.79 30.36 1214.41 35.976 1214.41 44.04C1214.41 52.128 1219.76 57.72 1227.52 57.72ZM1227.52 51.624C1223.58 51.624 1221.32 48.864 1221.32 44.04C1221.32 39.168 1223.53 36.456 1227.52 36.456C1231.48 36.456 1233.76 39.216 1233.76 44.04C1233.76 48.816 1231.45 51.624 1227.52 51.624ZM1253.87 57V43.296L1258.67 52.464H1263.66L1268.46 43.296V57H1274.99V31.08H1268.46L1261.16 45.024L1253.87 31.08H1247.34V57H1253.87ZM1294.8 57.72C1302.58 57.72 1307.95 52.128 1307.95 44.04C1307.95 35.952 1302.58 30.36 1294.8 30.36C1287.07 30.36 1281.7 35.976 1281.7 44.04C1281.7 52.128 1287.05 57.72 1294.8 57.72ZM1294.8 51.624C1290.87 51.624 1288.61 48.864 1288.61 44.04C1288.61 39.168 1290.82 36.456 1294.8 36.456C1298.76 36.456 1301.04 39.216 1301.04 44.04C1301.04 48.816 1298.74 51.624 1294.8 51.624ZM1321.25 57V37.128H1331.95V31.08H1314.67V57H1321.25ZM1347.32 68.52L1361.96 31.08H1355.43L1348.66 48.72L1341.84 31.08H1335.08L1345.54 56.784L1341.27 68.52H1347.32ZM1389.24 57.72C1395.24 57.72 1399.52 54.648 1401 49.128L1394.33 47.736C1393.56 50.232 1392.17 51.624 1389.24 51.624C1385.31 51.624 1383.29 48.552 1383.29 44.04C1383.29 39.72 1385.12 36.456 1389.24 36.456C1391.64 36.456 1393.71 38.04 1394.48 40.728L1401 39C1399.85 33.672 1395.44 30.36 1389.34 30.36C1381.42 30.36 1376.38 36.168 1376.38 44.04C1376.38 51.816 1381.18 57.72 1389.24 57.72ZM1418.21 57.72C1425.98 57.72 1431.36 52.128 1431.36 44.04C1431.36 35.952 1425.98 30.36 1418.21 30.36C1410.48 30.36 1405.1 35.976 1405.1 44.04C1405.1 52.128 1410.45 57.72 1418.21 57.72ZM1418.21 51.624C1414.27 51.624 1412.01 48.864 1412.01 44.04C1412.01 39.168 1414.22 36.456 1418.21 36.456C1422.17 36.456 1424.45 39.216 1424.45 44.04C1424.45 48.816 1422.14 51.624 1418.21 51.624ZM1441.94 57L1447.31 49.032L1452.64 57H1460.32L1451.01 43.896L1460.08 31.08H1452.4L1447.31 38.76L1442.13 31.08H1434.45L1443.52 43.896L1434.26 57H1441.94ZM1472.15 68.52V53.808C1473.66 56.256 1476.09 57.72 1479.78 57.72C1486.41 57.72 1491.5 52.104 1491.5 44.04C1491.5 36.024 1486.41 30.36 1479.78 30.36C1476.09 30.36 1473.66 31.824 1472.15 34.272V31.08H1465.62V68.52H1472.15ZM1478.34 51.624C1474.26 51.624 1472.15 48.696 1472.15 44.04C1472.15 39.528 1474.07 36.456 1478.34 36.456C1482.47 36.456 1484.58 39.432 1484.58 44.04C1484.58 48.504 1482.52 51.624 1478.34 51.624ZM1508.8 30.36C1503.06 30.36 1499.12 32.928 1497.71 37.608L1503.61 39.24C1504.38 37.032 1505.96 36.072 1508.8 36.072C1511.68 36.072 1513.28 37.416 1513.45 40.272L1506.95 41.088C1500.2 41.928 1496.8 44.88 1496.8 49.848C1496.8 54.552 1500.28 57.72 1505.44 57.72C1509.18 57.72 1511.8 56.424 1513.45 53.808V57H1519.98V41.88C1519.98 34.056 1516.38 30.36 1508.8 30.36ZM1513.45 44.928V45.288C1513.45 46.44 1513.43 47.904 1512.83 49.128C1511.96 50.88 1509.8 52.344 1507.07 52.344C1504.5 52.344 1503.18 51.312 1503.18 49.272C1503.18 47.232 1504.74 46.008 1507.91 45.624L1513.45 44.928ZM1534.14 57V47.064H1544.8V57H1551.32V31.08H1544.8V41.016H1534.14V31.08H1527.61V57H1534.14ZM1576.04 31.08L1565.96 47.016V31.08H1559.43V57H1565.96L1576.04 41.064V57H1582.56V31.08H1576.04ZM1603.35 57V37.128H1611.61V31.08H1588.57V37.128H1596.82V57H1603.35ZM1629.6 57C1636.44 57 1639.46 52.992 1639.46 48.312C1639.46 43.632 1636.44 39.624 1629.6 39.624H1624.15V31.08H1617.62V57H1629.6ZM1624.15 51.792V44.832H1628.57C1631.69 44.832 1632.91 46.392 1632.91 48.312C1632.91 50.232 1631.69 51.792 1628.57 51.792H1624.15ZM1668.68 57.72C1674.68 57.72 1678.95 54.648 1680.44 49.128L1673.76 47.736C1673 50.232 1671.6 51.624 1668.68 51.624C1664.74 51.624 1662.72 48.552 1662.72 44.04C1662.72 39.72 1664.55 36.456 1668.68 36.456C1671.08 36.456 1673.14 38.04 1673.91 40.728L1680.44 39C1679.28 33.672 1674.87 30.36 1668.77 30.36C1660.85 30.36 1655.81 36.168 1655.81 44.04C1655.81 51.816 1660.61 57.72 1668.68 57.72ZM1699.08 57C1705.01 57 1708.23 54.456 1708.23 49.776C1708.23 46.56 1706.62 44.256 1704.03 43.56C1706.09 42.744 1707.36 40.92 1707.36 38.064C1707.36 33.576 1704.08 31.08 1698.12 31.08H1686.63V57H1699.08ZM1698.2 36.12C1700 36.12 1701.27 36.792 1701.27 38.712C1701.27 40.632 1700 41.304 1698.2 41.304H1692.68V36.12H1698.2ZM1692.68 51.96V46.248H1699.08C1700.88 46.248 1702.16 47.184 1702.16 49.104C1702.16 51.024 1700.88 51.96 1699.08 51.96H1692.68ZM1719.84 57L1724.3 48.456H1728.76V57H1735.29V31.08H1723.32C1716.48 31.08 1713.45 35.088 1713.45 39.768C1713.45 42.984 1714.89 45.912 1718.01 47.4L1713.02 57H1719.84ZM1728.76 36.288V43.248H1724.35C1721.23 43.248 1720 41.688 1720 39.768C1720 37.848 1721.23 36.288 1724.35 36.288H1728.76ZM1752.63 57.72C1759.35 57.72 1763.36 54.144 1763.36 49.224C1763.36 46.488 1762.04 44.352 1759.78 43.56C1761.89 42.456 1762.64 40.8 1762.64 38.448C1762.64 33.312 1758.87 30.36 1752.49 30.36C1747.3 30.36 1742.74 32.4 1741.49 38.04L1747.59 39.144C1748.07 36.84 1749.85 35.976 1752.39 35.976C1754.45 35.976 1756.37 36.864 1756.37 38.76C1756.37 40.152 1755.39 41.088 1753.11 41.088H1749.37V46.176H1753.11C1755.51 46.176 1757.05 47.064 1757.05 49.032C1757.05 50.928 1755.29 52.104 1752.46 52.104C1749.8 52.104 1747.57 51.024 1747.13 48.144L1741.06 49.224C1741.9 54.624 1745.98 57.72 1752.63 57.72ZM1786.63 31.08L1776.55 47.016V31.08H1770.03V57H1776.55L1786.63 41.064V57H1793.16V31.08H1786.63Z" fill="white"/>
<rect x="1808.78" y="42.5" width="59" height="59" rx="16" transform="rotate(-45 1808.78 42.5)" fill="#42FFF4"/>
<path d="M1862.17 33.7474H1856.33V30.8307C1856.33 29.212 1855.04 27.9141 1853.42 27.9141H1847.58C1845.96 27.9141 1844.67 29.212 1844.67 30.8307V33.7474H1838.83C1837.21 33.7474 1835.93 35.0453 1835.93 36.6641L1835.92 52.7057C1835.92 54.3245 1837.21 55.6224 1838.83 55.6224H1862.17C1863.79 55.6224 1865.08 54.3245 1865.08 52.7057V36.6641C1865.08 35.0453 1863.79 33.7474 1862.17 33.7474ZM1853.42 33.7474H1847.58V30.8307H1853.42V33.7474Z" fill="#0D2E4B"/>
<path d="M1916.09 57V37.128H1925.93V57H1932.46V31.08H1909.56V57H1916.09ZM1947.16 68.52V53.808C1948.67 56.256 1951.09 57.72 1954.79 57.72C1961.41 57.72 1966.5 52.104 1966.5 44.04C1966.5 36.024 1961.41 30.36 1954.79 30.36C1951.09 30.36 1948.67 31.824 1947.16 34.272V31.08H1940.63V68.52H1947.16ZM1953.35 51.624C1949.27 51.624 1947.16 48.696 1947.16 44.04C1947.16 39.528 1949.08 36.456 1953.35 36.456C1957.48 36.456 1959.59 39.432 1959.59 44.04C1959.59 48.504 1957.52 51.624 1953.35 51.624ZM1984.9 51.72C1981.54 51.72 1979.38 49.584 1978.83 45.864H1997.02C1997.82 36.456 1993.3 30.36 1984.9 30.36C1977.22 30.36 1971.8 35.928 1971.8 44.04C1971.8 52.056 1977.08 57.72 1984.9 57.72C1990.47 57.72 1994.84 54.984 1996.81 50.232L1990.28 48.456C1989.27 50.688 1987.57 51.72 1984.9 51.72ZM1979.02 41.016C1979.79 37.896 1981.83 36.12 1984.9 36.12C1988.12 36.12 1990.16 37.944 1990.4 41.016H1979.02ZM2001.96 62.76H2008.49V57H2023.83V62.76H2030.35V50.952H2026.99V31.08H2006.16V39.552C2006.16 43.08 2006.31 49.008 2004.48 50.952H2001.96V62.76ZM2011.15 50.952C2011.8 49.008 2012.16 46.032 2012.16 42.648V37.128H2020.47V50.952H2011.15ZM2048.01 57.72C2054.01 57.72 2058.28 54.648 2059.77 49.128L2053.1 47.736C2052.33 50.232 2050.94 51.624 2048.01 51.624C2044.08 51.624 2042.06 48.552 2042.06 44.04C2042.06 39.72 2043.88 36.456 2048.01 36.456C2050.41 36.456 2052.48 38.04 2053.24 40.728L2059.77 39C2058.62 33.672 2054.2 30.36 2048.11 30.36C2040.19 30.36 2035.15 36.168 2035.15 44.04C2035.15 51.816 2039.95 57.72 2048.01 57.72ZM2077.7 57V37.128H2085.96V31.08H2062.92V37.128H2071.17V57H2077.7ZM2102.06 30.36C2096.32 30.36 2092.39 32.928 2090.97 37.608L2096.88 39.24C2097.64 37.032 2099.23 36.072 2102.06 36.072C2104.94 36.072 2106.55 37.416 2106.72 40.272L2100.21 41.088C2093.47 41.928 2090.06 44.88 2090.06 49.848C2090.06 54.552 2093.54 57.72 2098.7 57.72C2102.44 57.72 2105.06 56.424 2106.72 53.808V57H2113.24V41.88C2113.24 34.056 2109.64 30.36 2102.06 30.36ZM2106.72 44.928V45.288C2106.72 46.44 2106.69 47.904 2106.09 49.128C2105.23 50.88 2103.07 52.344 2100.33 52.344C2097.76 52.344 2096.44 51.312 2096.44 49.272C2096.44 47.232 2098 46.008 2101.17 45.624L2106.72 44.928ZM2133.33 57C2139.26 57 2142.48 54.456 2142.48 49.776C2142.48 46.56 2140.87 44.256 2138.28 43.56C2140.34 42.744 2141.61 40.92 2141.61 38.064C2141.61 33.576 2138.32 31.08 2132.37 31.08H2120.88V57H2133.33ZM2132.44 36.12C2134.24 36.12 2135.52 36.792 2135.52 38.712C2135.52 40.632 2134.24 41.304 2132.44 41.304H2126.92V36.12H2132.44ZM2126.92 51.96V46.248H2133.33C2135.13 46.248 2136.4 47.184 2136.4 49.104C2136.4 51.024 2135.13 51.96 2133.33 51.96H2126.92ZM2146.31 57.24C2147.41 57.552 2148.44 57.72 2149.4 57.72C2153.96 57.72 2156.58 53.904 2156.58 45.312V37.128H2164.64V57H2171.17V31.08H2150.58V42.912C2150.58 48.888 2149.88 51.888 2147.44 51.888C2147.1 51.888 2146.72 51.84 2146.31 51.72V57.24ZM2203.66 57.72C2211.44 57.72 2216.81 52.104 2216.81 44.04C2216.81 36.024 2211.49 30.36 2203.66 30.36C2197.06 30.36 2192.12 34.464 2190.87 40.776H2185.83V31.08H2179.3V57H2185.83V47.304H2190.87C2192.12 53.544 2196.94 57.72 2203.66 57.72ZM2203.66 51.624C2199.58 51.624 2197.47 48.696 2197.47 44.04C2197.47 39.528 2199.39 36.456 2203.66 36.456C2207.79 36.456 2209.9 39.432 2209.9 44.04C2209.9 48.504 2207.84 51.624 2203.66 51.624ZM2247.21 57V37.128H2255.47V31.08H2232.43V37.128H2240.69V57H2247.21ZM2273.15 51.72C2269.79 51.72 2267.63 49.584 2267.08 45.864H2285.27C2286.06 36.456 2281.55 30.36 2273.15 30.36C2265.47 30.36 2260.04 35.928 2260.04 44.04C2260.04 52.056 2265.32 57.72 2273.15 57.72C2278.72 57.72 2283.08 54.984 2285.05 50.232L2278.52 48.456C2277.52 50.688 2275.81 51.72 2273.15 51.72ZM2267.27 41.016C2268.04 37.896 2270.08 36.12 2273.15 36.12C2276.36 36.12 2278.4 37.944 2278.64 41.016H2267.27ZM2303.05 57.768C2310.49 57.84 2315.81 52.704 2315.81 45.048C2315.81 37.848 2311.3 32.856 2304.82 32.856C2301.73 32.856 2298.77 33.96 2296.95 36.648C2297.21 33.144 2297.98 31.56 2300.26 30.336C2303.74 28.488 2307.27 29.184 2314.61 27.744L2314.16 21.744C2307.75 23.064 2301.01 22.44 2296.13 25.752C2292.37 28.32 2291.38 32.64 2290.93 36.912C2290.64 39.6 2290.59 42.768 2290.81 44.952C2291.53 52.656 2295.68 57.672 2303.05 57.768ZM2303.33 51.672C2299.71 51.672 2297.72 49.272 2297.72 45.336C2297.72 41.52 2299.66 39 2303.33 39C2306.89 39 2308.95 41.52 2308.95 45.336C2308.95 49.056 2307.01 51.672 2303.33 51.672ZM2327.91 57L2332.38 48.456H2336.84V57H2343.37V31.08H2331.39C2324.55 31.08 2321.53 35.088 2321.53 39.768C2321.53 42.984 2322.97 45.912 2326.09 47.4L2321.1 57H2327.91ZM2336.84 36.288V43.248H2332.42C2329.3 43.248 2328.08 41.688 2328.08 39.768C2328.08 37.848 2329.3 36.288 2332.42 36.288H2336.84ZM2369.07 57V43.296L2373.87 52.464H2378.86L2383.66 43.296V57H2390.19V31.08H2383.66L2376.36 45.024L2369.07 31.08H2362.54V57H2369.07ZM2414.9 31.08L2404.82 47.016V31.08H2398.29V57H2404.82L2414.9 41.064V57H2421.43V31.08H2414.9ZM2436.12 68.52V53.808C2437.63 56.256 2440.06 57.72 2443.75 57.72C2450.38 57.72 2455.46 52.104 2455.46 44.04C2455.46 36.024 2450.38 30.36 2443.75 30.36C2440.06 30.36 2437.63 31.824 2436.12 34.272V31.08H2429.59V68.52H2436.12ZM2442.31 51.624C2438.23 51.624 2436.12 48.696 2436.12 44.04C2436.12 39.528 2438.04 36.456 2442.31 36.456C2446.44 36.456 2448.55 39.432 2448.55 44.04C2448.55 48.504 2446.49 51.624 2442.31 51.624ZM2471.1 68.52L2485.74 31.08H2479.21L2472.44 48.72L2465.62 31.08H2458.86L2469.32 56.784L2465.05 68.52H2471.1Z" fill="white"/>
<rect x="2510" y="13" width="59" height="59" rx="29.5" fill="#FD7800"/>
<path d="M2550.41 43.0085C2548.12 37.0585 2539.97 36.7377 2541.94 28.0898C2542.08 27.4481 2541.4 26.9523 2540.84 27.2877C2535.55 30.4085 2531.74 36.6648 2534.94 44.8606C2535.2 45.5314 2534.41 46.1585 2533.84 45.721C2531.2 43.7231 2530.92 40.8502 2531.16 38.7939C2531.25 38.0356 2530.25 37.671 2529.83 38.2981C2528.84 39.8148 2527.83 42.2648 2527.83 45.9543C2528.39 54.121 2535.29 56.6293 2537.76 56.9502C2541.31 57.4023 2545.14 56.746 2547.9 54.2231C2550.93 51.4085 2552.04 46.9168 2550.41 43.0085ZM2536.87 50.3439C2538.97 49.8335 2540.05 48.3168 2540.35 46.9752C2540.83 44.8898 2538.95 42.8481 2540.21 39.5523C2540.7 42.2793 2544.98 43.9856 2544.98 46.9606C2545.1 50.6502 2541.1 53.8148 2536.87 50.3439Z" fill="#260101" fill-opacity="0.44"/>
<path d="M2550.41 43.0085C2548.12 37.0585 2539.97 36.7377 2541.94 28.0898C2542.08 27.4481 2541.4 26.9523 2540.84 27.2877C2535.55 30.4085 2531.74 36.6648 2534.94 44.8606C2535.2 45.5314 2534.41 46.1585 2533.84 45.721C2531.2 43.7231 2530.92 40.8502 2531.16 38.7939C2531.25 38.0356 2530.25 37.671 2529.83 38.2981C2528.84 39.8148 2527.83 42.2648 2527.83 45.9543C2528.39 54.121 2535.29 56.6293 2537.76 56.9502C2541.31 57.4023 2545.14 56.746 2547.9 54.2231C2550.93 51.4085 2552.04 46.9168 2550.41 43.0085ZM2536.87 50.3439C2538.97 49.8335 2540.05 48.3168 2540.35 46.9752C2540.83 44.8898 2538.95 42.8481 2540.21 39.5523C2540.7 42.2793 2544.98 43.9856 2544.98 46.9606C2545.1 50.6502 2541.1 53.8148 2536.87 50.3439Z" fill="#260101" fill-opacity="0.44"/>
<path d="M2608.31 57.72C2616.09 57.72 2621.47 52.128 2621.47 44.04C2621.47 35.952 2616.09 30.36 2608.31 30.36C2600.59 30.36 2595.21 35.976 2595.21 44.04C2595.21 52.128 2600.56 57.72 2608.31 57.72ZM2608.31 51.624C2604.38 51.624 2602.12 48.864 2602.12 44.04C2602.12 39.168 2604.33 36.456 2608.31 36.456C2612.27 36.456 2614.55 39.216 2614.55 44.04C2614.55 48.816 2612.25 51.624 2608.31 51.624ZM2626.26 62.76H2632.79V57H2648.13V62.76H2654.66V50.952H2651.3V31.08H2630.46V39.552C2630.46 43.08 2630.61 49.008 2628.78 50.952H2626.26V62.76ZM2635.46 50.952C2636.1 49.008 2636.46 46.032 2636.46 42.648V37.128H2644.77V50.952H2635.46ZM2667.37 57V47.064H2678.03V57H2684.55V31.08H2678.03V41.016H2667.37V31.08H2660.84V57H2667.37ZM2704.37 57.72C2712.14 57.72 2717.52 52.128 2717.52 44.04C2717.52 35.952 2712.14 30.36 2704.37 30.36C2696.64 30.36 2691.26 35.976 2691.26 44.04C2691.26 52.128 2696.62 57.72 2704.37 57.72ZM2704.37 51.624C2700.43 51.624 2698.18 48.864 2698.18 44.04C2698.18 39.168 2700.38 36.456 2704.37 36.456C2708.33 36.456 2710.61 39.216 2710.61 44.04C2710.61 48.816 2708.3 51.624 2704.37 51.624ZM2736.62 28.2C2738.01 28.2 2739.29 27.864 2740.46 27.168C2742.79 25.824 2744.25 23.352 2744.25 20.568H2739.21C2739.21 22.008 2738.06 23.16 2736.62 23.16C2735.18 23.16 2734.03 22.008 2734.03 20.568H2728.99C2728.99 21.96 2729.33 23.232 2730.02 24.408C2731.37 26.736 2733.84 28.2 2736.62 28.2ZM2740.8 31.08L2730.72 47.016V31.08H2724.19V57H2730.72L2740.8 41.064V57H2747.33V31.08H2740.8ZM2777.96 57.72C2783.96 57.72 2788.24 54.648 2789.72 49.128L2783.05 47.736C2782.28 50.232 2780.89 51.624 2777.96 51.624C2774.03 51.624 2772.01 48.552 2772.01 44.04C2772.01 39.72 2773.84 36.456 2777.96 36.456C2780.36 36.456 2782.43 38.04 2783.2 40.728L2789.72 39C2788.57 33.672 2784.16 30.36 2778.06 30.36C2770.14 30.36 2765.1 36.168 2765.1 44.04C2765.1 51.816 2769.9 57.72 2777.96 57.72ZM2806.68 57.72C2812.68 57.72 2816.96 54.648 2818.44 49.128L2811.77 47.736C2811 50.232 2809.61 51.624 2806.68 51.624C2802.75 51.624 2800.73 48.552 2800.73 44.04C2800.73 39.72 2802.56 36.456 2806.68 36.456C2809.08 36.456 2811.15 38.04 2811.92 40.728L2818.44 39C2817.29 33.672 2812.88 30.36 2806.78 30.36C2798.86 30.36 2793.82 36.168 2793.82 44.04C2793.82 51.816 2798.62 57.72 2806.68 57.72ZM2855.6 57V31.08H2849.07V57H2855.6ZM2836.66 57C2843.5 57 2846.53 52.992 2846.53 48.312C2846.53 43.632 2843.5 39.624 2836.66 39.624H2831.21V31.08H2824.69V57H2836.66ZM2831.21 51.792V44.832H2835.63C2838.75 44.832 2839.97 46.392 2839.97 48.312C2839.97 50.232 2838.75 51.792 2835.63 51.792H2831.21ZM2861.37 57.24C2862.47 57.552 2863.5 57.72 2864.46 57.72C2869.02 57.72 2871.64 53.904 2871.64 45.312V37.128H2879.7V57H2886.23V31.08H2865.64V42.912C2865.64 48.888 2864.94 51.888 2862.49 51.888C2862.16 51.888 2861.77 51.84 2861.37 51.72V57.24ZM2894.36 57H2900.89V44.496L2909.87 57H2918.36L2908.38 44.04L2917.74 31.08H2909.67L2900.89 43.56V31.08H2894.36V57ZM2933.39 57.72C2941.16 57.72 2946.54 52.128 2946.54 44.04C2946.54 35.952 2941.16 30.36 2933.39 30.36C2925.66 30.36 2920.28 35.976 2920.28 44.04C2920.28 52.128 2925.64 57.72 2933.39 57.72ZM2933.39 51.624C2929.45 51.624 2927.2 48.864 2927.2 44.04C2927.2 39.168 2929.4 36.456 2933.39 36.456C2937.35 36.456 2939.63 39.216 2939.63 44.04C2939.63 48.816 2937.32 51.624 2933.39 51.624ZM2965.64 28.2C2967.03 28.2 2968.31 27.864 2969.48 27.168C2971.81 25.824 2973.27 23.352 2973.27 20.568H2968.23C2968.23 22.008 2967.08 23.16 2965.64 23.16C2964.2 23.16 2963.05 22.008 2963.05 20.568H2958.01C2958.01 21.96 2958.35 23.232 2959.04 24.408C2960.39 26.736 2962.86 28.2 2965.64 28.2ZM2969.82 31.08L2959.74 47.016V31.08H2953.21V57H2959.74L2969.82 41.064V57H2976.35V31.08H2969.82Z" fill="white"/>
<rect x="3004" y="13" width="59" height="59" rx="16" fill="#00FF29"/>
<g clip-path="url(#clip1_1183_3307)">
<path d="M3022.78 51.6888C3021.3 49.5232 3021.76 46.5655 3023.62 44.709L3027.25 41.0828C3027.89 40.4393 3027.89 39.375 3027.25 38.7315C3026.6 38.0881 3025.54 38.0881 3024.89 38.7317L3021.39 42.2342C3018.16 45.4643 3017.64 50.7115 3020.55 54.2382C3023.88 58.2847 3029.88 58.4946 3033.49 54.8808L3037.27 51.1061C3037.91 50.4625 3037.91 49.3982 3037.27 48.7548C3036.63 48.1113 3035.56 48.1114 3034.92 48.7549L3031.14 52.5297C3028.78 54.8935 3024.76 54.6092 3022.78 51.6888ZM3031.02 47.4558L3038.45 40.0301C3039.13 39.3494 3039.13 38.2357 3038.45 37.5551C3037.76 36.8745 3036.65 36.8746 3035.97 37.5552L3028.54 44.9809C3027.86 45.6616 3027.86 46.7754 3028.54 47.456C3029.22 48.1366 3030.34 48.1365 3031.02 47.4558ZM3033.22 30.4025L3029.72 33.905C3029.08 34.5486 3029.08 35.6128 3029.72 36.2563C3030.36 36.8998 3031.43 36.8997 3032.07 36.2561L3035.7 32.6299C3037.55 30.7735 3040.51 30.3154 3042.68 31.7879C3045.6 33.7677 3045.88 37.7897 3043.52 40.1535L3039.74 43.9282C3039.1 44.5718 3039.1 45.6361 3039.74 46.2795C3040.39 46.923 3041.45 46.9229 3042.1 46.2794L3045.87 42.5046C3049.48 38.8908 3049.27 32.8888 3045.24 29.5478C3041.71 26.6398 3036.45 27.1724 3033.22 30.4025Z" fill="#214B0D"/>
</g>
<path d="M3097.31 57V37.128H3107.15V57H3113.68V31.08H3090.79V57H3097.31ZM3133.52 57.72C3141.29 57.72 3146.67 52.128 3146.67 44.04C3146.67 35.952 3141.29 30.36 3133.52 30.36C3125.79 30.36 3120.41 35.976 3120.41 44.04C3120.41 52.128 3125.76 57.72 3133.52 57.72ZM3133.52 51.624C3129.58 51.624 3127.32 48.864 3127.32 44.04C3127.32 39.168 3129.53 36.456 3133.52 36.456C3137.48 36.456 3139.76 39.216 3139.76 44.04C3139.76 48.816 3137.45 51.624 3133.52 51.624ZM3159.87 57V43.296L3164.67 52.464H3169.66L3174.46 43.296V57H3180.99V31.08H3174.46L3167.16 45.024L3159.87 31.08H3153.34V57H3159.87ZM3200.8 57.72C3208.58 57.72 3213.95 52.128 3213.95 44.04C3213.95 35.952 3208.58 30.36 3200.8 30.36C3193.07 30.36 3187.7 35.976 3187.7 44.04C3187.7 52.128 3193.05 57.72 3200.8 57.72ZM3200.8 51.624C3196.87 51.624 3194.61 48.864 3194.61 44.04C3194.61 39.168 3196.82 36.456 3200.8 36.456C3204.76 36.456 3207.04 39.216 3207.04 44.04C3207.04 48.816 3204.74 51.624 3200.8 51.624ZM3227.25 57V37.128H3237.95V31.08H3220.67V57H3227.25ZM3253.32 68.52L3267.96 31.08H3261.43L3254.66 48.72L3247.84 31.08H3241.08L3251.54 56.784L3247.27 68.52H3253.32ZM3295.24 57.72C3301.24 57.72 3305.52 54.648 3307 49.128L3300.33 47.736C3299.56 50.232 3298.17 51.624 3295.24 51.624C3291.31 51.624 3289.29 48.552 3289.29 44.04C3289.29 39.72 3291.12 36.456 3295.24 36.456C3297.64 36.456 3299.71 38.04 3300.48 40.728L3307 39C3305.85 33.672 3301.44 30.36 3295.34 30.36C3287.42 30.36 3282.38 36.168 3282.38 44.04C3282.38 51.816 3287.18 57.72 3295.24 57.72ZM3324.21 57.72C3331.98 57.72 3337.36 52.128 3337.36 44.04C3337.36 35.952 3331.98 30.36 3324.21 30.36C3316.48 30.36 3311.1 35.976 3311.1 44.04C3311.1 52.128 3316.45 57.72 3324.21 57.72ZM3324.21 51.624C3320.27 51.624 3318.01 48.864 3318.01 44.04C3318.01 39.168 3320.22 36.456 3324.21 36.456C3328.17 36.456 3330.45 39.216 3330.45 44.04C3330.45 48.816 3328.14 51.624 3324.21 51.624ZM3347.94 57L3353.31 49.032L3358.64 57H3366.32L3357.01 43.896L3366.08 31.08H3358.4L3353.31 38.76L3348.13 31.08H3340.45L3349.52 43.896L3340.26 57H3347.94ZM3378.15 68.52V53.808C3379.66 56.256 3382.09 57.72 3385.78 57.72C3392.41 57.72 3397.5 52.104 3397.5 44.04C3397.5 36.024 3392.41 30.36 3385.78 30.36C3382.09 30.36 3379.66 31.824 3378.15 34.272V31.08H3371.62V68.52H3378.15ZM3384.34 51.624C3380.26 51.624 3378.15 48.696 3378.15 44.04C3378.15 39.528 3380.07 36.456 3384.34 36.456C3388.47 36.456 3390.58 39.432 3390.58 44.04C3390.58 48.504 3388.52 51.624 3384.34 51.624ZM3414.8 30.36C3409.06 30.36 3405.12 32.928 3403.71 37.608L3409.61 39.24C3410.38 37.032 3411.96 36.072 3414.8 36.072C3417.68 36.072 3419.28 37.416 3419.45 40.272L3412.95 41.088C3406.2 41.928 3402.8 44.88 3402.8 49.848C3402.8 54.552 3406.28 57.72 3411.44 57.72C3415.18 57.72 3417.8 56.424 3419.45 53.808V57H3425.98V41.88C3425.98 34.056 3422.38 30.36 3414.8 30.36ZM3419.45 44.928V45.288C3419.45 46.44 3419.43 47.904 3418.83 49.128C3417.96 50.88 3415.8 52.344 3413.07 52.344C3410.5 52.344 3409.18 51.312 3409.18 49.272C3409.18 47.232 3410.74 46.008 3413.91 45.624L3419.45 44.928ZM3440.14 57V47.064H3450.8V57H3457.32V31.08H3450.8V41.016H3440.14V31.08H3433.61V57H3440.14ZM3482.04 31.08L3471.96 47.016V31.08H3465.43V57H3471.96L3482.04 41.064V57H3488.56V31.08H3482.04ZM3509.35 57V37.128H3517.61V31.08H3494.57V37.128H3502.82V57H3509.35ZM3535.6 57C3542.44 57 3545.46 52.992 3545.46 48.312C3545.46 43.632 3542.44 39.624 3535.6 39.624H3530.15V31.08H3523.62V57H3535.6ZM3530.15 51.792V44.832H3534.57C3537.69 44.832 3538.91 46.392 3538.91 48.312C3538.91 50.232 3537.69 51.792 3534.57 51.792H3530.15ZM3574.68 57.72C3580.68 57.72 3584.95 54.648 3586.44 49.128L3579.76 47.736C3579 50.232 3577.6 51.624 3574.68 51.624C3570.74 51.624 3568.72 48.552 3568.72 44.04C3568.72 39.72 3570.55 36.456 3574.68 36.456C3577.08 36.456 3579.14 38.04 3579.91 40.728L3586.44 39C3585.28 33.672 3580.87 30.36 3574.77 30.36C3566.85 30.36 3561.81 36.168 3561.81 44.04C3561.81 51.816 3566.61 57.72 3574.68 57.72ZM3605.08 57C3611.01 57 3614.23 54.456 3614.23 49.776C3614.23 46.56 3612.62 44.256 3610.03 43.56C3612.09 42.744 3613.36 40.92 3613.36 38.064C3613.36 33.576 3610.08 31.08 3604.12 31.08H3592.63V57H3605.08ZM3604.2 36.12C3606 36.12 3607.27 36.792 3607.27 38.712C3607.27 40.632 3606 41.304 3604.2 41.304H3598.68V36.12H3604.2ZM3598.68 51.96V46.248H3605.08C3606.88 46.248 3608.16 47.184 3608.16 49.104C3608.16 51.024 3606.88 51.96 3605.08 51.96H3598.68ZM3625.84 57L3630.3 48.456H3634.76V57H3641.29V31.08H3629.32C3622.48 31.08 3619.45 35.088 3619.45 39.768C3619.45 42.984 3620.89 45.912 3624.01 47.4L3619.02 57H3625.84ZM3634.76 36.288V43.248H3630.35C3627.23 43.248 3626 41.688 3626 39.768C3626 37.848 3627.23 36.288 3630.35 36.288H3634.76ZM3658.63 57.72C3665.35 57.72 3669.36 54.144 3669.36 49.224C3669.36 46.488 3668.04 44.352 3665.78 43.56C3667.89 42.456 3668.64 40.8 3668.64 38.448C3668.64 33.312 3664.87 30.36 3658.49 30.36C3653.3 30.36 3648.74 32.4 3647.49 38.04L3653.59 39.144C3654.07 36.84 3655.85 35.976 3658.39 35.976C3660.45 35.976 3662.37 36.864 3662.37 38.76C3662.37 40.152 3661.39 41.088 3659.11 41.088H3655.37V46.176H3659.11C3661.51 46.176 3663.05 47.064 3663.05 49.032C3663.05 50.928 3661.29 52.104 3658.46 52.104C3655.8 52.104 3653.57 51.024 3653.13 48.144L3647.06 49.224C3647.9 54.624 3651.98 57.72 3658.63 57.72ZM3692.63 31.08L3682.55 47.016V31.08H3676.03V57H3682.55L3692.63 41.064V57H3699.16V31.08H3692.63Z" fill="white"/>
<rect x="3714.78" y="42.5" width="59" height="59" rx="16" transform="rotate(-45 3714.78 42.5)" fill="#42FFF4"/>
<path d="M3768.17 33.7474H3762.33V30.8307C3762.33 29.212 3761.04 27.9141 3759.42 27.9141H3753.58C3751.96 27.9141 3750.67 29.212 3750.67 30.8307V33.7474H3744.83C3743.21 33.7474 3741.93 35.0453 3741.93 36.6641L3741.92 52.7057C3741.92 54.3245 3743.21 55.6224 3744.83 55.6224H3768.17C3769.79 55.6224 3771.08 54.3245 3771.08 52.7057V36.6641C3771.08 35.0453 3769.79 33.7474 3768.17 33.7474ZM3759.42 33.7474H3753.58V30.8307H3759.42V33.7474Z" fill="#0D2E4B"/>
<defs>
<clipPath id="clip0_1183_3307">
<path d="M1115.13 54.8744C1108.29 48.0402 1108.29 36.9598 1115.13 30.1256V30.1256C1121.96 23.2915 1133.04 23.2915 1139.87 30.1256V30.1256C1146.71 36.9598 1146.71 48.0402 1139.87 54.8744V54.8744C1133.04 61.7085 1121.96 61.7085 1115.13 54.8744V54.8744Z" fill="white"/>
</clipPath>
<clipPath id="clip1_1183_3307">
<path d="M3021.13 54.8744C3014.29 48.0402 3014.29 36.9598 3021.13 30.1256V30.1256C3027.96 23.2915 3039.04 23.2915 3045.87 30.1256V30.1256C3052.71 36.9598 3052.71 48.0402 3045.87 54.8744V54.8744C3039.04 61.7085 3027.96 61.7085 3021.13 54.8744V54.8744Z" fill="white"/>
</clipPath>
</defs>
</svg>
