<svg width="4126" height="66" viewBox="0 0 4126 66" fill="none" xmlns="http://www.w3.org/2000/svg">
<path d="M10.3861 62.52V47.808C11.8981 50.256 14.3221 51.72 18.0181 51.72C24.6421 51.72 29.7301 46.104 29.7301 38.04C29.7301 30.024 24.6421 24.36 18.0181 24.36C14.3221 24.36 11.8981 25.824 10.3861 28.272V25.08H3.85812V62.52H10.3861ZM16.5781 45.624C12.4981 45.624 10.3861 42.696 10.3861 38.04C10.3861 33.528 12.3061 30.456 16.5781 30.456C20.7061 30.456 22.8181 33.432 22.8181 38.04C22.8181 42.504 20.7541 45.624 16.5781 45.624ZM47.03 24.36C41.294 24.36 37.358 26.928 35.942 31.608L41.846 33.24C42.614 31.032 44.198 30.072 47.03 30.072C49.91 30.072 51.518 31.416 51.686 34.272L45.182 35.088C38.438 35.928 35.03 38.88 35.03 43.848C35.03 48.552 38.51 51.72 43.67 51.72C47.414 51.72 50.03 50.424 51.686 47.808V51H58.214V35.88C58.214 28.056 54.614 24.36 47.03 24.36ZM51.686 38.928V39.288C51.686 40.44 51.662 41.904 51.062 43.128C50.198 44.88 48.038 46.344 45.302 46.344C42.734 46.344 41.414 45.312 41.414 43.272C41.414 41.232 42.974 40.008 46.142 39.624L51.686 38.928ZM77.3184 51.72C83.3184 51.72 87.5904 48.648 89.0784 43.128L82.4064 41.736C81.6384 44.232 80.2464 45.624 77.3184 45.624C73.3824 45.624 71.3664 42.552 71.3664 38.04C71.3664 33.72 73.1904 30.456 77.3184 30.456C79.7184 30.456 81.7824 32.04 82.5504 34.728L89.0784 33C87.9264 27.672 83.5104 24.36 77.4144 24.36C69.4944 24.36 64.4544 30.168 64.4544 38.04C64.4544 45.816 69.2544 51.72 77.3184 51.72ZM95.2707 51H131.655V25.08H125.127V44.952H116.727V25.08H110.199V44.952H101.799V25.08H95.2707V51ZM150.397 24.36C144.661 24.36 140.725 26.928 139.309 31.608L145.213 33.24C145.981 31.032 147.565 30.072 150.397 30.072C153.277 30.072 154.885 31.416 155.053 34.272L148.549 35.088C141.805 35.928 138.397 38.88 138.397 43.848C138.397 48.552 141.877 51.72 147.037 51.72C150.781 51.72 153.397 50.424 155.053 47.808V51H161.581V35.88C161.581 28.056 157.981 24.36 150.397 24.36ZM155.053 38.928V39.288C155.053 40.44 155.029 41.904 154.429 43.128C153.565 44.88 151.405 46.344 148.669 46.344C146.101 46.344 144.781 45.312 144.781 43.272C144.781 41.232 146.341 40.008 149.509 39.624L155.053 38.928ZM175.789 62.52V47.808C177.301 50.256 179.725 51.72 183.421 51.72C190.045 51.72 195.133 46.104 195.133 38.04C195.133 30.024 190.045 24.36 183.421 24.36C179.725 24.36 177.301 25.824 175.789 28.272V25.08H169.261V62.52H175.789ZM181.981 45.624C177.901 45.624 175.789 42.696 175.789 38.04C175.789 33.528 177.709 30.456 181.981 30.456C186.109 30.456 188.221 33.432 188.221 38.04C188.221 42.504 186.157 45.624 181.981 45.624ZM226.185 51.72C233.961 51.72 239.337 46.104 239.337 38.04C239.337 30.024 234.009 24.36 226.185 24.36C219.585 24.36 214.641 28.464 213.393 34.776H208.353V25.08H201.825V51H208.353V41.304H213.393C214.641 47.544 219.465 51.72 226.185 51.72ZM226.185 45.624C222.105 45.624 219.993 42.696 219.993 38.04C219.993 33.528 221.913 30.456 226.185 30.456C230.313 30.456 232.425 33.432 232.425 38.04C232.425 42.504 230.361 45.624 226.185 45.624ZM268.537 51.72C274.537 51.72 278.809 48.648 280.297 43.128L273.625 41.736C272.857 44.232 271.465 45.624 268.537 45.624C264.601 45.624 262.585 42.552 262.585 38.04C262.585 33.72 264.409 30.456 268.537 30.456C270.937 30.456 273.001 32.04 273.769 34.728L280.297 33C279.145 27.672 274.729 24.36 268.633 24.36C260.713 24.36 255.673 30.168 255.673 38.04C255.673 45.816 260.473 51.72 268.537 51.72ZM297.498 51.72C305.274 51.72 310.65 46.128 310.65 38.04C310.65 29.952 305.274 24.36 297.498 24.36C289.77 24.36 284.394 29.976 284.394 38.04C284.394 46.128 289.746 51.72 297.498 51.72ZM297.498 45.624C293.562 45.624 291.306 42.864 291.306 38.04C291.306 33.168 293.514 30.456 297.498 30.456C301.458 30.456 303.738 33.216 303.738 38.04C303.738 42.816 301.434 45.624 297.498 45.624ZM343.816 56.76V44.952H340.456V25.08H333.928V44.952H323.848V25.08H317.32V51H337.288V56.76H343.816ZM360.513 51.72C366.513 51.72 370.785 48.648 372.273 43.128L365.601 41.736C364.833 44.232 363.441 45.624 360.513 45.624C356.577 45.624 354.561 42.552 354.561 38.04C354.561 33.72 356.385 30.456 360.513 30.456C362.913 30.456 364.977 32.04 365.745 34.728L372.273 33C371.121 27.672 366.705 24.36 360.609 24.36C352.689 24.36 347.649 30.168 347.649 38.04C347.649 45.816 352.449 51.72 360.513 51.72ZM390.177 45.72C386.817 45.72 384.657 43.584 384.105 39.864H402.297C403.089 30.456 398.577 24.36 390.177 24.36C382.497 24.36 377.073 29.928 377.073 38.04C377.073 46.056 382.353 51.72 390.177 51.72C395.745 51.72 400.113 48.984 402.081 44.232L395.553 42.456C394.545 44.688 392.841 45.72 390.177 45.72ZM384.297 35.016C385.065 31.896 387.105 30.12 390.177 30.12C393.393 30.12 395.433 31.944 395.673 35.016H384.297ZM421.78 51V31.128H430.036V25.08H406.996V31.128H415.252V51H421.78ZM452.609 25.08L442.529 41.016V25.08H436.001V51H442.529L452.609 35.064V51H459.137V25.08H452.609Z" fill="white"/>
<g clip-path="url(#clip0_1183_3309)">
<path d="M510.03 7.73613C514.749 1.39007 524.251 1.39007 528.97 7.73613V7.73613C530.912 10.3472 533.845 12.0408 537.077 12.4167V12.4167C544.932 13.3302 549.684 21.5599 546.547 28.8194V28.8194C545.257 31.8064 545.257 35.1936 546.547 38.1806V38.1806C549.684 45.4401 544.932 53.6698 537.077 54.5833V54.5833C533.845 54.9592 530.912 56.6528 528.97 59.2639V59.2639C524.251 65.6099 514.749 65.6099 510.03 59.2639V59.2639C508.088 56.6528 505.155 54.9592 501.923 54.5833V54.5833C494.068 53.6698 489.316 45.4401 492.453 38.1806V38.1806C493.743 35.1936 493.743 31.8064 492.453 28.8195V28.8195C489.316 21.5599 494.068 13.3302 501.923 12.4167V12.4167C505.155 12.0408 508.088 10.3472 510.03 7.73613V7.73613Z" fill="#FFD600"/>
<path d="M525.476 46.4193C524.464 46.4193 523.598 46.0587 522.877 45.3375C522.155 44.6163 521.795 43.7498 521.795 42.738C521.795 42.5873 521.811 42.4097 521.843 42.2052C521.876 42.0007 521.924 41.8123 521.989 41.6401L512.204 35.9568C511.881 36.3227 511.483 36.6187 511.009 36.8448C510.536 37.0708 510.051 37.1839 509.556 37.1839C508.544 37.1839 507.678 36.8233 506.957 36.1021C506.236 35.3809 505.875 34.5144 505.875 33.5026C505.875 32.4693 506.236 31.5974 506.957 30.887C507.678 30.1766 508.544 29.8214 509.556 29.8214C510.051 29.8214 510.525 29.9182 510.977 30.112C511.429 30.3057 511.838 30.5856 512.204 30.9516L521.989 25.3328C521.924 25.1821 521.876 25.0099 521.843 24.8161C521.811 24.6224 521.795 24.4394 521.795 24.2672C521.795 23.2339 522.155 22.362 522.877 21.6516C523.598 20.9411 524.464 20.5859 525.476 20.5859C526.509 20.5859 527.381 20.9411 528.092 21.6516C528.802 22.362 529.157 23.2339 529.157 24.2672C529.157 25.279 528.802 26.1455 528.092 26.8667C527.381 27.5878 526.509 27.9484 525.476 27.9484C524.981 27.9484 524.502 27.8677 524.039 27.7062C523.576 27.5448 523.183 27.2811 522.86 26.9151L513.076 32.3401C513.119 32.5123 513.157 32.7115 513.189 32.9375C513.221 33.1635 513.237 33.3519 513.237 33.5026C513.237 33.6533 513.221 33.8148 513.189 33.987C513.157 34.1592 513.119 34.3314 513.076 34.5036L522.86 40.0578C523.183 39.7564 523.56 39.5142 523.991 39.3313C524.421 39.1483 524.916 39.0568 525.476 39.0568C526.509 39.0568 527.381 39.412 528.092 40.1224C528.802 40.8328 529.157 41.7047 529.157 42.738C529.157 43.7498 528.802 44.6163 528.092 45.3375C527.381 46.0587 526.509 46.4193 525.476 46.4193Z" fill="#54370A"/>
</g>
<path d="M590.833 51.72C596.833 51.72 601.105 48.648 602.593 43.128L595.921 41.736C595.153 44.232 593.761 45.624 590.833 45.624C586.897 45.624 584.881 42.552 584.881 38.04C584.881 33.72 586.705 30.456 590.833 30.456C593.233 30.456 595.297 32.04 596.065 34.728L602.593 33C601.441 27.672 597.025 24.36 590.929 24.36C583.009 24.36 577.969 30.168 577.969 38.04C577.969 45.816 582.769 51.72 590.833 51.72ZM608.786 51H615.314V38.496L624.29 51H632.786L622.802 38.04L632.162 25.08H624.098L615.314 37.56V25.08H608.786V51ZM647.813 51.72C655.589 51.72 660.965 46.128 660.965 38.04C660.965 29.952 655.589 24.36 647.813 24.36C640.085 24.36 634.709 29.976 634.709 38.04C634.709 46.128 640.061 51.72 647.813 51.72ZM647.813 45.624C643.877 45.624 641.621 42.864 641.621 38.04C641.621 33.168 643.829 30.456 647.813 30.456C651.773 30.456 654.053 33.216 654.053 38.04C654.053 42.816 651.749 45.624 647.813 45.624ZM674.163 51V41.064H684.819V51H691.347V25.08H684.819V35.016H674.163V25.08H667.635V51H674.163ZM712.122 51V31.128H720.378V25.08H697.338V31.128H705.594V51H712.122ZM736.482 24.36C730.746 24.36 726.81 26.928 725.394 31.608L731.298 33.24C732.066 31.032 733.65 30.072 736.482 30.072C739.362 30.072 740.97 31.416 741.138 34.272L734.634 35.088C727.89 35.928 724.482 38.88 724.482 43.848C724.482 48.552 727.962 51.72 733.122 51.72C736.866 51.72 739.482 50.424 741.138 47.808V51H747.666V35.88C747.666 28.056 744.066 24.36 736.482 24.36ZM741.138 38.928V39.288C741.138 40.44 741.114 41.904 740.514 43.128C739.65 44.88 737.49 46.344 734.754 46.344C732.186 46.344 730.866 45.312 730.866 43.272C730.866 41.232 732.426 40.008 735.594 39.624L741.138 38.928ZM775.89 51V25.08H769.362V35.976C767.946 37.032 766.482 37.512 764.754 37.512C761.442 37.512 760.434 35.688 760.434 32.52V25.08H753.906V33.48C753.906 40.008 756.978 43.272 763.17 43.272C765.57 43.272 767.922 42.72 769.362 41.784V51H775.89ZM793.428 62.52L808.068 25.08H801.54L794.772 42.72L787.956 25.08H781.188L791.652 50.784L787.38 62.52H793.428ZM830.412 51V31.128H840.252V51H846.78V25.08H823.884V51H830.412ZM866.614 51.72C874.39 51.72 879.766 46.128 879.766 38.04C879.766 29.952 874.39 24.36 866.614 24.36C858.886 24.36 853.51 29.976 853.51 38.04C853.51 46.128 858.862 51.72 866.614 51.72ZM866.614 45.624C862.678 45.624 860.422 42.864 860.422 38.04C860.422 33.168 862.63 30.456 866.614 30.456C870.574 30.456 872.854 33.216 872.854 38.04C872.854 42.816 870.55 45.624 866.614 45.624ZM909.941 51C915.869 51 919.085 48.456 919.085 43.776C919.085 40.56 917.477 38.256 914.885 37.56C916.949 36.744 918.221 34.92 918.221 32.064C918.221 27.576 914.933 25.08 908.981 25.08H897.485V51H909.941ZM909.053 30.12C910.853 30.12 912.125 30.792 912.125 32.712C912.125 34.632 910.853 35.304 909.053 35.304H903.533V30.12H909.053ZM903.533 45.96V40.248H909.941C911.741 40.248 913.013 41.184 913.013 43.104C913.013 45.024 911.741 45.96 909.941 45.96H903.533ZM936.741 51.72C942.741 51.72 947.013 48.648 948.501 43.128L941.829 41.736C941.061 44.232 939.669 45.624 936.741 45.624C932.805 45.624 930.789 42.552 930.789 38.04C930.789 33.72 932.613 30.456 936.741 30.456C939.141 30.456 941.205 32.04 941.973 34.728L948.501 33C947.349 27.672 942.933 24.36 936.837 24.36C928.917 24.36 923.877 30.168 923.877 38.04C923.877 45.816 928.677 51.72 936.741 51.72ZM966.405 45.72C963.045 45.72 960.885 43.584 960.333 39.864H978.525C979.317 30.456 974.805 24.36 966.405 24.36C958.725 24.36 953.301 29.928 953.301 38.04C953.301 46.056 958.581 51.72 966.405 51.72C971.973 51.72 976.341 48.984 978.309 44.232L971.781 42.456C970.773 44.688 969.069 45.72 966.405 45.72ZM960.525 35.016C961.293 31.896 963.333 30.12 966.405 30.12C969.621 30.12 971.661 31.944 971.901 35.016H960.525ZM991.161 51V37.296L995.961 46.464H1000.95L1005.75 37.296V51H1012.28V25.08H1005.75L998.457 39.024L991.161 25.08H984.633V51H991.161ZM1031.44 51H1037.96V38.496L1046.94 51H1055.44L1045.45 38.04L1054.81 25.08H1046.75L1037.96 37.56V25.08H1031.44V51ZM1069.83 24.36C1064.09 24.36 1060.15 26.928 1058.74 31.608L1064.64 33.24C1065.41 31.032 1066.99 30.072 1069.83 30.072C1072.71 30.072 1074.31 31.416 1074.48 34.272L1067.98 35.088C1061.23 35.928 1057.83 38.88 1057.83 43.848C1057.83 48.552 1061.31 51.72 1066.47 51.72C1070.21 51.72 1072.83 50.424 1074.48 47.808V51H1081.01V35.88C1081.01 28.056 1077.41 24.36 1069.83 24.36ZM1074.48 38.928V39.288C1074.48 40.44 1074.46 41.904 1073.86 43.128C1072.99 44.88 1070.83 46.344 1068.1 46.344C1065.53 46.344 1064.21 45.312 1064.21 43.272C1064.21 41.232 1065.77 40.008 1068.94 39.624L1074.48 38.928ZM1095.17 51V41.064H1105.83V51H1112.36V25.08H1105.83V35.016H1095.17V25.08H1088.64V51H1095.17ZM1131.07 24.36C1125.33 24.36 1121.39 26.928 1119.98 31.608L1125.88 33.24C1126.65 31.032 1128.23 30.072 1131.07 30.072C1133.95 30.072 1135.55 31.416 1135.72 34.272L1129.22 35.088C1122.47 35.928 1119.07 38.88 1119.07 43.848C1119.07 48.552 1122.55 51.72 1127.71 51.72C1131.45 51.72 1134.07 50.424 1135.72 47.808V51H1142.25V35.88C1142.25 28.056 1138.65 24.36 1131.07 24.36ZM1135.72 38.928V39.288C1135.72 40.44 1135.7 41.904 1135.1 43.128C1134.23 44.88 1132.07 46.344 1129.34 46.344C1126.77 46.344 1125.45 45.312 1125.45 43.272C1125.45 41.232 1127.01 40.008 1130.18 39.624L1135.72 38.928ZM1147.53 51.24C1148.63 51.552 1149.67 51.72 1150.63 51.72C1155.19 51.72 1157.8 47.904 1157.8 39.312V31.128H1165.87V51H1172.39V25.08H1151.8V36.912C1151.8 42.888 1151.11 45.888 1148.66 45.888C1148.32 45.888 1147.94 45.84 1147.53 45.72V51.24ZM1191.13 24.36C1185.4 24.36 1181.46 26.928 1180.05 31.608L1185.95 33.24C1186.72 31.032 1188.3 30.072 1191.13 30.072C1194.01 30.072 1195.62 31.416 1195.79 34.272L1189.29 35.088C1182.54 35.928 1179.13 38.88 1179.13 43.848C1179.13 48.552 1182.61 51.72 1187.77 51.72C1191.52 51.72 1194.13 50.424 1195.79 47.808V51H1202.32V35.88C1202.32 28.056 1198.72 24.36 1191.13 24.36ZM1195.79 38.928V39.288C1195.79 40.44 1195.77 41.904 1195.17 43.128C1194.3 44.88 1192.14 46.344 1189.41 46.344C1186.84 46.344 1185.52 45.312 1185.52 43.272C1185.52 41.232 1187.08 40.008 1190.25 39.624L1195.79 38.928ZM1216.48 51V37.296L1221.28 46.464H1226.27L1231.07 37.296V51H1237.6V25.08H1231.07L1223.77 39.024L1216.48 25.08H1209.95V51H1216.48Z" fill="white"/>
<path d="M1291 8.3094C1293.48 6.88034 1296.52 6.88034 1299 8.3094L1316.98 18.6906C1319.46 20.1197 1320.98 22.7607 1320.98 25.6188V46.3812C1320.98 49.2393 1319.46 51.8803 1316.98 53.3094L1299 63.6906C1296.52 65.1197 1293.48 65.1197 1291 63.6906L1273.02 53.3094C1270.54 51.8803 1269.02 49.2393 1269.02 46.3812V25.6188C1269.02 22.7607 1270.54 20.1197 1273.02 18.6906L1291 8.3094Z" fill="#F26DF8"/>
<path d="M1283.92 47.6583C1283.55 47.8061 1283.2 47.7753 1282.87 47.5659C1282.54 47.3565 1282.38 47.0548 1282.38 46.6607V40.1209C1282.38 39.8499 1282.45 39.6159 1282.61 39.4189C1282.77 39.2218 1282.98 39.0987 1283.22 39.0494L1293.51 36.5L1283.22 33.8767C1282.98 33.8274 1282.77 33.7043 1282.61 33.5072C1282.45 33.3102 1282.38 33.0762 1282.38 32.8052V26.3393C1282.38 25.9452 1282.54 25.6435 1282.87 25.4341C1283.2 25.2247 1283.55 25.1939 1283.92 25.3417L1307.96 35.4655C1308.4 35.6625 1308.63 36.0074 1308.63 36.5C1308.63 36.9926 1308.4 37.3375 1307.96 37.5345L1283.92 47.6583Z" fill="#36016A"/>
<path d="M1359.2 62.52V47.808C1360.71 50.256 1363.13 51.72 1366.83 51.72C1373.45 51.72 1378.54 46.104 1378.54 38.04C1378.54 30.024 1373.45 24.36 1366.83 24.36C1363.13 24.36 1360.71 25.824 1359.2 28.272V25.08H1352.67V62.52H1359.2ZM1365.39 45.624C1361.31 45.624 1359.2 42.696 1359.2 38.04C1359.2 33.528 1361.12 30.456 1365.39 30.456C1369.52 30.456 1371.63 33.432 1371.63 38.04C1371.63 42.504 1369.57 45.624 1365.39 45.624ZM1395.84 24.36C1390.11 24.36 1386.17 26.928 1384.75 31.608L1390.66 33.24C1391.43 31.032 1393.01 30.072 1395.84 30.072C1398.72 30.072 1400.33 31.416 1400.5 34.272L1393.99 35.088C1387.25 35.928 1383.84 38.88 1383.84 43.848C1383.84 48.552 1387.32 51.72 1392.48 51.72C1396.23 51.72 1398.84 50.424 1400.5 47.808V51H1407.03V35.88C1407.03 28.056 1403.43 24.36 1395.84 24.36ZM1400.5 38.928V39.288C1400.5 40.44 1400.47 41.904 1399.87 43.128C1399.01 44.88 1396.85 46.344 1394.11 46.344C1391.55 46.344 1390.23 45.312 1390.23 43.272C1390.23 41.232 1391.79 40.008 1394.95 39.624L1400.5 38.928ZM1426.13 51.72C1432.13 51.72 1436.4 48.648 1437.89 43.128L1431.22 41.736C1430.45 44.232 1429.06 45.624 1426.13 45.624C1422.19 45.624 1420.18 42.552 1420.18 38.04C1420.18 33.72 1422 30.456 1426.13 30.456C1428.53 30.456 1430.59 32.04 1431.36 34.728L1437.89 33C1436.74 27.672 1432.32 24.36 1426.23 24.36C1418.31 24.36 1413.27 30.168 1413.27 38.04C1413.27 45.816 1418.07 51.72 1426.13 51.72ZM1454.85 51.72C1460.85 51.72 1465.12 48.648 1466.61 43.128L1459.94 41.736C1459.17 44.232 1457.78 45.624 1454.85 45.624C1450.92 45.624 1448.9 42.552 1448.9 38.04C1448.9 33.72 1450.72 30.456 1454.85 30.456C1457.25 30.456 1459.32 32.04 1460.08 34.728L1466.61 33C1465.46 27.672 1461.04 24.36 1454.95 24.36C1447.03 24.36 1441.99 30.168 1441.99 38.04C1441.99 45.816 1446.79 51.72 1454.85 51.72ZM1472.8 51H1479.33V38.496L1488.31 51H1496.8L1486.82 38.04L1496.18 25.08H1488.12L1479.33 37.56V25.08H1472.8V51ZM1511.2 24.36C1505.46 24.36 1501.52 26.928 1500.11 31.608L1506.01 33.24C1506.78 31.032 1508.36 30.072 1511.2 30.072C1514.08 30.072 1515.68 31.416 1515.85 34.272L1509.35 35.088C1502.6 35.928 1499.2 38.88 1499.2 43.848C1499.2 48.552 1502.68 51.72 1507.84 51.72C1511.58 51.72 1514.2 50.424 1515.85 47.808V51H1522.38V35.88C1522.38 28.056 1518.78 24.36 1511.2 24.36ZM1515.85 38.928V39.288C1515.85 40.44 1515.83 41.904 1515.23 43.128C1514.36 44.88 1512.2 46.344 1509.47 46.344C1506.9 46.344 1505.58 45.312 1505.58 43.272C1505.58 41.232 1507.14 40.008 1510.31 39.624L1515.85 38.928ZM1544.65 51H1551.18V38.496L1560.16 51H1568.65L1558.67 38.04L1568.03 25.08H1559.96L1551.18 37.56V25.08H1544.65V37.56L1535.87 25.08H1527.8L1537.16 38.04L1527.18 51H1535.68L1544.65 38.496V51ZM1583.28 62.52L1597.92 25.08H1591.39L1584.63 42.72L1577.81 25.08H1571.04L1581.51 50.784L1577.23 62.52H1583.28ZM1625.45 51.72C1633.23 51.72 1638.6 46.128 1638.6 38.04C1638.6 29.952 1633.23 24.36 1625.45 24.36C1617.72 24.36 1612.35 29.976 1612.35 38.04C1612.35 46.128 1617.7 51.72 1625.45 51.72ZM1625.45 45.624C1621.51 45.624 1619.26 42.864 1619.26 38.04C1619.26 33.168 1621.47 30.456 1625.45 30.456C1629.41 30.456 1631.69 33.216 1631.69 38.04C1631.69 42.816 1629.39 45.624 1625.45 45.624ZM1668.99 51V31.128H1677.25V25.08H1654.21V31.128H1662.47V51H1668.99ZM1695.67 51C1701.6 51 1704.81 48.456 1704.81 43.776C1704.81 40.56 1703.21 38.256 1700.61 37.56C1702.68 36.744 1703.95 34.92 1703.95 32.064C1703.95 27.576 1700.66 25.08 1694.71 25.08H1683.21V51H1695.67ZM1694.78 30.12C1696.58 30.12 1697.85 30.792 1697.85 32.712C1697.85 34.632 1696.58 35.304 1694.78 35.304H1689.26V30.12H1694.78ZM1689.26 45.96V40.248H1695.67C1697.47 40.248 1698.74 41.184 1698.74 43.104C1698.74 45.024 1697.47 45.96 1695.67 45.96H1689.26ZM1722.71 51.72C1730.49 51.72 1735.86 46.128 1735.86 38.04C1735.86 29.952 1730.49 24.36 1722.71 24.36C1714.98 24.36 1709.61 29.976 1709.61 38.04C1709.61 46.128 1714.96 51.72 1722.71 51.72ZM1722.71 45.624C1718.77 45.624 1716.52 42.864 1716.52 38.04C1716.52 33.168 1718.73 30.456 1722.71 30.456C1726.67 30.456 1728.95 33.216 1728.95 38.04C1728.95 42.816 1726.65 45.624 1722.71 45.624ZM1756.45 21.432H1762.21V15.672H1756.45V21.432ZM1746.28 21.432H1752.04V15.672H1746.28V21.432ZM1754.24 45.72C1750.88 45.72 1748.72 43.584 1748.17 39.864H1766.36C1767.16 30.456 1762.64 24.36 1754.24 24.36C1746.56 24.36 1741.14 29.928 1741.14 38.04C1741.14 46.056 1746.42 51.72 1754.24 51.72C1759.81 51.72 1764.18 48.984 1766.15 44.232L1759.62 42.456C1758.61 44.688 1756.91 45.72 1754.24 45.72ZM1748.36 35.016C1749.13 31.896 1751.17 30.12 1754.24 30.12C1757.46 30.12 1759.5 31.944 1759.74 35.016H1748.36ZM1779 51V37.296L1783.8 46.464H1788.79L1793.59 37.296V51H1800.12V25.08H1793.59L1786.3 39.024L1779 25.08H1772.47V51H1779ZM1830.99 51.72C1838.76 51.72 1844.14 46.128 1844.14 38.04C1844.14 29.952 1838.76 24.36 1830.99 24.36C1823.26 24.36 1817.88 29.976 1817.88 38.04C1817.88 46.128 1823.23 51.72 1830.99 51.72ZM1830.99 45.624C1827.05 45.624 1824.79 42.864 1824.79 38.04C1824.79 33.168 1827 30.456 1830.99 30.456C1834.95 30.456 1837.23 33.216 1837.23 38.04C1837.23 42.816 1834.92 45.624 1830.99 45.624ZM1857.34 51V31.128H1867.18V51H1873.7V25.08H1850.81V51H1857.34ZM1912.79 51V25.08H1906.26V51H1912.79ZM1893.85 51C1900.69 51 1903.71 46.992 1903.71 42.312C1903.71 37.632 1900.69 33.624 1893.85 33.624H1888.4V25.08H1881.87V51H1893.85ZM1888.4 45.792V38.832H1892.82C1895.94 38.832 1897.16 40.392 1897.16 42.312C1897.16 44.232 1895.94 45.792 1892.82 45.792H1888.4ZM1933.58 51V31.128H1941.83V25.08H1918.79V31.128H1927.05V51H1933.58ZM1959.51 45.72C1956.15 45.72 1953.99 43.584 1953.44 39.864H1971.63C1972.42 30.456 1967.91 24.36 1959.51 24.36C1951.83 24.36 1946.41 29.928 1946.41 38.04C1946.41 46.056 1951.69 51.72 1959.51 51.72C1965.08 51.72 1969.45 48.984 1971.42 44.232L1964.89 42.456C1963.88 44.688 1962.18 45.72 1959.51 45.72ZM1953.63 35.016C1954.4 31.896 1956.44 30.12 1959.51 30.12C1962.73 30.12 1964.77 31.944 1965.01 35.016H1953.63Z" fill="white"/>
<rect x="1998" y="7" width="59" height="59" rx="16" fill="#FF3C48"/>
<path d="M2017.29 38.2188V42.3167C2017.29 43.3813 2017.88 44.3729 2018.81 44.8833L2026.1 48.8646C2026.98 49.3458 2028.03 49.3458 2028.9 48.8646L2036.19 44.8833C2037.13 44.3729 2037.71 43.3813 2037.71 42.3167V38.2188L2028.9 43.0313C2028.03 43.5125 2026.98 43.5125 2026.1 43.0313L2017.29 38.2188ZM2026.1 24.1313L2013.81 30.8396C2012.8 31.3937 2012.8 32.8521 2013.81 33.4063L2026.1 40.1146C2026.98 40.5958 2028.03 40.5958 2028.9 40.1146L2040.63 33.7125V42.3313C2040.63 43.1333 2041.28 43.7896 2042.08 43.7896C2042.89 43.7896 2043.54 43.1333 2043.54 42.3313V32.9833C2043.54 32.4438 2043.25 31.9625 2042.78 31.7L2028.9 24.1313C2028.03 23.6646 2026.98 23.6646 2026.1 24.1313V24.1313Z" fill="#530C0C"/>
<path d="M2079.39 62.52V47.808C2080.9 50.256 2083.32 51.72 2087.02 51.72C2093.64 51.72 2098.73 46.104 2098.73 38.04C2098.73 30.024 2093.64 24.36 2087.02 24.36C2083.32 24.36 2080.9 25.824 2079.39 28.272V25.08H2072.86V62.52H2079.39ZM2085.58 45.624C2081.5 45.624 2079.39 42.696 2079.39 38.04C2079.39 33.528 2081.31 30.456 2085.58 30.456C2089.71 30.456 2091.82 33.432 2091.82 38.04C2091.82 42.504 2089.75 45.624 2085.58 45.624ZM2116.03 24.36C2110.29 24.36 2106.36 26.928 2104.94 31.608L2110.85 33.24C2111.61 31.032 2113.2 30.072 2116.03 30.072C2118.91 30.072 2120.52 31.416 2120.69 34.272L2114.18 35.088C2107.44 35.928 2104.03 38.88 2104.03 43.848C2104.03 48.552 2107.51 51.72 2112.67 51.72C2116.41 51.72 2119.03 50.424 2120.69 47.808V51H2127.21V35.88C2127.21 28.056 2123.61 24.36 2116.03 24.36ZM2120.69 38.928V39.288C2120.69 40.44 2120.66 41.904 2120.06 43.128C2119.2 44.88 2117.04 46.344 2114.3 46.344C2111.73 46.344 2110.41 45.312 2110.41 43.272C2110.41 41.232 2111.97 40.008 2115.14 39.624L2120.69 38.928ZM2146.32 51.72C2152.32 51.72 2156.59 48.648 2158.08 43.128L2151.41 41.736C2150.64 44.232 2149.25 45.624 2146.32 45.624C2142.38 45.624 2140.37 42.552 2140.37 38.04C2140.37 33.72 2142.19 30.456 2146.32 30.456C2148.72 30.456 2150.78 32.04 2151.55 34.728L2158.08 33C2156.93 27.672 2152.51 24.36 2146.41 24.36C2138.49 24.36 2133.45 30.168 2133.45 38.04C2133.45 45.816 2138.25 51.72 2146.32 51.72ZM2164.27 51H2200.65V25.08H2194.13V44.952H2185.73V25.08H2179.2V44.952H2170.8V25.08H2164.27V51ZM2219.4 24.36C2213.66 24.36 2209.72 26.928 2208.31 31.608L2214.21 33.24C2214.98 31.032 2216.56 30.072 2219.4 30.072C2222.28 30.072 2223.88 31.416 2224.05 34.272L2217.55 35.088C2210.8 35.928 2207.4 38.88 2207.4 43.848C2207.4 48.552 2210.88 51.72 2216.04 51.72C2219.78 51.72 2222.4 50.424 2224.05 47.808V51H2230.58V35.88C2230.58 28.056 2226.98 24.36 2219.4 24.36ZM2224.05 38.928V39.288C2224.05 40.44 2224.03 41.904 2223.43 43.128C2222.56 44.88 2220.4 46.344 2217.67 46.344C2215.1 46.344 2213.78 45.312 2213.78 43.272C2213.78 41.232 2215.34 40.008 2218.51 39.624L2224.05 38.928ZM2244.79 62.52V47.808C2246.3 50.256 2248.73 51.72 2252.42 51.72C2259.05 51.72 2264.13 46.104 2264.13 38.04C2264.13 30.024 2259.05 24.36 2252.42 24.36C2248.73 24.36 2246.3 25.824 2244.79 28.272V25.08H2238.26V62.52H2244.79ZM2250.98 45.624C2246.9 45.624 2244.79 42.696 2244.79 38.04C2244.79 33.528 2246.71 30.456 2250.98 30.456C2255.11 30.456 2257.22 33.432 2257.22 38.04C2257.22 42.504 2255.16 45.624 2250.98 45.624ZM2295.19 51.72C2302.96 51.72 2308.34 46.104 2308.34 38.04C2308.34 30.024 2303.01 24.36 2295.19 24.36C2288.59 24.36 2283.64 28.464 2282.39 34.776H2277.35V25.08H2270.83V51H2277.35V41.304H2282.39C2283.64 47.544 2288.47 51.72 2295.19 51.72ZM2295.19 45.624C2291.11 45.624 2288.99 42.696 2288.99 38.04C2288.99 33.528 2290.91 30.456 2295.19 30.456C2299.31 30.456 2301.43 33.432 2301.43 38.04C2301.43 42.504 2299.36 45.624 2295.19 45.624ZM2337.54 51.72C2343.54 51.72 2347.81 48.648 2349.3 43.128L2342.62 41.736C2341.86 44.232 2340.46 45.624 2337.54 45.624C2333.6 45.624 2331.58 42.552 2331.58 38.04C2331.58 33.72 2333.41 30.456 2337.54 30.456C2339.94 30.456 2342 32.04 2342.77 34.728L2349.3 33C2348.14 27.672 2343.73 24.36 2337.63 24.36C2329.71 24.36 2324.67 30.168 2324.67 38.04C2324.67 45.816 2329.47 51.72 2337.54 51.72ZM2366.5 51.72C2374.27 51.72 2379.65 46.128 2379.65 38.04C2379.65 29.952 2374.27 24.36 2366.5 24.36C2358.77 24.36 2353.39 29.976 2353.39 38.04C2353.39 46.128 2358.75 51.72 2366.5 51.72ZM2366.5 45.624C2362.56 45.624 2360.31 42.864 2360.31 38.04C2360.31 33.168 2362.51 30.456 2366.5 30.456C2370.46 30.456 2372.74 33.216 2372.74 38.04C2372.74 42.816 2370.43 45.624 2366.5 45.624ZM2412.82 56.76V44.952H2409.46V25.08H2402.93V44.952H2392.85V25.08H2386.32V51H2406.29V56.76H2412.82ZM2429.51 51.72C2435.51 51.72 2439.78 48.648 2441.27 43.128L2434.6 41.736C2433.83 44.232 2432.44 45.624 2429.51 45.624C2425.58 45.624 2423.56 42.552 2423.56 38.04C2423.56 33.72 2425.38 30.456 2429.51 30.456C2431.91 30.456 2433.98 32.04 2434.74 34.728L2441.27 33C2440.12 27.672 2435.7 24.36 2429.61 24.36C2421.69 24.36 2416.65 30.168 2416.65 38.04C2416.65 45.816 2421.45 51.72 2429.51 51.72ZM2459.18 45.72C2455.82 45.72 2453.66 43.584 2453.11 39.864H2471.3C2472.09 30.456 2467.58 24.36 2459.18 24.36C2451.5 24.36 2446.07 29.928 2446.07 38.04C2446.07 46.056 2451.35 51.72 2459.18 51.72C2464.75 51.72 2469.11 48.984 2471.08 44.232L2464.55 42.456C2463.55 44.688 2461.84 45.72 2459.18 45.72ZM2453.3 35.016C2454.07 31.896 2456.11 30.12 2459.18 30.12C2462.39 30.12 2464.43 31.944 2464.67 35.016H2453.3ZM2490.78 51V31.128H2499.04V25.08H2476V31.128H2484.25V51H2490.78ZM2521.61 25.08L2511.53 41.016V25.08H2505V51H2511.53L2521.61 35.064V51H2528.14V25.08H2521.61Z" fill="white"/>
<g clip-path="url(#clip1_1183_3309)">
<path d="M2579.03 7.73613C2583.75 1.39007 2593.25 1.39007 2597.97 7.73613V7.73613C2599.91 10.3472 2602.85 12.0408 2606.08 12.4167V12.4167C2613.93 13.3302 2618.68 21.5599 2615.55 28.8194V28.8194C2614.26 31.8064 2614.26 35.1936 2615.55 38.1806V38.1806C2618.68 45.4401 2613.93 53.6698 2606.08 54.5833V54.5833C2602.85 54.9592 2599.91 56.6528 2597.97 59.2639V59.2639C2593.25 65.6099 2583.75 65.6099 2579.03 59.2639V59.2639C2577.09 56.6528 2574.15 54.9592 2570.92 54.5833V54.5833C2563.07 53.6698 2558.32 45.4401 2561.45 38.1806V38.1806C2562.74 35.1936 2562.74 31.8064 2561.45 28.8195V28.8195C2558.32 21.5599 2563.07 13.3302 2570.92 12.4167V12.4167C2574.15 12.0408 2577.09 10.3472 2579.03 7.73613V7.73613Z" fill="#FFD600"/>
<path d="M2594.48 46.4193C2593.46 46.4193 2592.6 46.0587 2591.88 45.3375C2591.16 44.6163 2590.79 43.7498 2590.79 42.738C2590.79 42.5873 2590.81 42.4097 2590.84 42.2052C2590.88 42.0007 2590.92 41.8123 2590.99 41.6401L2581.2 35.9568C2580.88 36.3227 2580.48 36.6187 2580.01 36.8448C2579.54 37.0708 2579.05 37.1839 2578.56 37.1839C2577.54 37.1839 2576.68 36.8233 2575.96 36.1021C2575.24 35.3809 2574.88 34.5144 2574.88 33.5026C2574.88 32.4693 2575.24 31.5974 2575.96 30.887C2576.68 30.1766 2577.54 29.8214 2578.56 29.8214C2579.05 29.8214 2579.52 29.9182 2579.98 30.112C2580.43 30.3057 2580.84 30.5856 2581.2 30.9516L2590.99 25.3328C2590.92 25.1821 2590.88 25.0099 2590.84 24.8161C2590.81 24.6224 2590.79 24.4394 2590.79 24.2672C2590.79 23.2339 2591.16 22.362 2591.88 21.6516C2592.6 20.9411 2593.46 20.5859 2594.48 20.5859C2595.51 20.5859 2596.38 20.9411 2597.09 21.6516C2597.8 22.362 2598.16 23.2339 2598.16 24.2672C2598.16 25.279 2597.8 26.1455 2597.09 26.8667C2596.38 27.5878 2595.51 27.9484 2594.48 27.9484C2593.98 27.9484 2593.5 27.8677 2593.04 27.7062C2592.58 27.5448 2592.18 27.2811 2591.86 26.9151L2582.08 32.3401C2582.12 32.5123 2582.16 32.7115 2582.19 32.9375C2582.22 33.1635 2582.24 33.3519 2582.24 33.5026C2582.24 33.6533 2582.22 33.8148 2582.19 33.987C2582.16 34.1592 2582.12 34.3314 2582.08 34.5036L2591.86 40.0578C2592.18 39.7564 2592.56 39.5142 2592.99 39.3313C2593.42 39.1483 2593.92 39.0568 2594.48 39.0568C2595.51 39.0568 2596.38 39.412 2597.09 40.1224C2597.8 40.8328 2598.16 41.7047 2598.16 42.738C2598.16 43.7498 2597.8 44.6163 2597.09 45.3375C2596.38 46.0587 2595.51 46.4193 2594.48 46.4193Z" fill="#54370A"/>
</g>
<path d="M2659.83 51.72C2665.83 51.72 2670.11 48.648 2671.59 43.128L2664.92 41.736C2664.15 44.232 2662.76 45.624 2659.83 45.624C2655.9 45.624 2653.88 42.552 2653.88 38.04C2653.88 33.72 2655.71 30.456 2659.83 30.456C2662.23 30.456 2664.3 32.04 2665.07 34.728L2671.59 33C2670.44 27.672 2666.03 24.36 2659.93 24.36C2652.01 24.36 2646.97 30.168 2646.97 38.04C2646.97 45.816 2651.77 51.72 2659.83 51.72ZM2677.79 51H2684.31V38.496L2693.29 51H2701.79L2691.8 38.04L2701.16 25.08H2693.1L2684.31 37.56V25.08H2677.79V51ZM2716.81 51.72C2724.59 51.72 2729.96 46.128 2729.96 38.04C2729.96 29.952 2724.59 24.36 2716.81 24.36C2709.08 24.36 2703.71 29.976 2703.71 38.04C2703.71 46.128 2709.06 51.72 2716.81 51.72ZM2716.81 45.624C2712.88 45.624 2710.62 42.864 2710.62 38.04C2710.62 33.168 2712.83 30.456 2716.81 30.456C2720.77 30.456 2723.05 33.216 2723.05 38.04C2723.05 42.816 2720.75 45.624 2716.81 45.624ZM2743.16 51V41.064H2753.82V51H2760.35V25.08H2753.82V35.016H2743.16V25.08H2736.63V51H2743.16ZM2781.12 51V31.128H2789.38V25.08H2766.34V31.128H2774.59V51H2781.12ZM2805.48 24.36C2799.75 24.36 2795.81 26.928 2794.39 31.608L2800.3 33.24C2801.07 31.032 2802.65 30.072 2805.48 30.072C2808.36 30.072 2809.97 31.416 2810.14 34.272L2803.63 35.088C2796.89 35.928 2793.48 38.88 2793.48 43.848C2793.48 48.552 2796.96 51.72 2802.12 51.72C2805.87 51.72 2808.48 50.424 2810.14 47.808V51H2816.67V35.88C2816.67 28.056 2813.07 24.36 2805.48 24.36ZM2810.14 38.928V39.288C2810.14 40.44 2810.11 41.904 2809.51 43.128C2808.65 44.88 2806.49 46.344 2803.75 46.344C2801.19 46.344 2799.87 45.312 2799.87 43.272C2799.87 41.232 2801.43 40.008 2804.59 39.624L2810.14 38.928ZM2844.89 51V25.08H2838.36V35.976C2836.95 37.032 2835.48 37.512 2833.75 37.512C2830.44 37.512 2829.43 35.688 2829.43 32.52V25.08H2822.91V33.48C2822.91 40.008 2825.98 43.272 2832.17 43.272C2834.57 43.272 2836.92 42.72 2838.36 41.784V51H2844.89ZM2862.43 62.52L2877.07 25.08H2870.54L2863.77 42.72L2856.96 25.08H2850.19L2860.65 50.784L2856.38 62.52H2862.43ZM2899.41 51V31.128H2909.25V51H2915.78V25.08H2892.88V51H2899.41ZM2935.61 51.72C2943.39 51.72 2948.77 46.128 2948.77 38.04C2948.77 29.952 2943.39 24.36 2935.61 24.36C2927.89 24.36 2922.51 29.976 2922.51 38.04C2922.51 46.128 2927.86 51.72 2935.61 51.72ZM2935.61 45.624C2931.68 45.624 2929.42 42.864 2929.42 38.04C2929.42 33.168 2931.63 30.456 2935.61 30.456C2939.57 30.456 2941.85 33.216 2941.85 38.04C2941.85 42.816 2939.55 45.624 2935.61 45.624ZM2978.94 51C2984.87 51 2988.09 48.456 2988.09 43.776C2988.09 40.56 2986.48 38.256 2983.89 37.56C2985.95 36.744 2987.22 34.92 2987.22 32.064C2987.22 27.576 2983.93 25.08 2977.98 25.08H2966.49V51H2978.94ZM2978.05 30.12C2979.85 30.12 2981.13 30.792 2981.13 32.712C2981.13 34.632 2979.85 35.304 2978.05 35.304H2972.53V30.12H2978.05ZM2972.53 45.96V40.248H2978.94C2980.74 40.248 2982.01 41.184 2982.01 43.104C2982.01 45.024 2980.74 45.96 2978.94 45.96H2972.53ZM3005.74 51.72C3011.74 51.72 3016.01 48.648 3017.5 43.128L3010.83 41.736C3010.06 44.232 3008.67 45.624 3005.74 45.624C3001.8 45.624 2999.79 42.552 2999.79 38.04C2999.79 33.72 3001.61 30.456 3005.74 30.456C3008.14 30.456 3010.2 32.04 3010.97 34.728L3017.5 33C3016.35 27.672 3011.93 24.36 3005.84 24.36C2997.92 24.36 2992.88 30.168 2992.88 38.04C2992.88 45.816 2997.68 51.72 3005.74 51.72ZM3035.41 45.72C3032.05 45.72 3029.89 43.584 3029.33 39.864H3047.53C3048.32 30.456 3043.81 24.36 3035.41 24.36C3027.73 24.36 3022.3 29.928 3022.3 38.04C3022.3 46.056 3027.58 51.72 3035.41 51.72C3040.97 51.72 3045.34 48.984 3047.31 44.232L3040.78 42.456C3039.77 44.688 3038.07 45.72 3035.41 45.72ZM3029.53 35.016C3030.29 31.896 3032.33 30.12 3035.41 30.12C3038.62 30.12 3040.66 31.944 3040.9 35.016H3029.53ZM3060.16 51V37.296L3064.96 46.464H3069.95L3074.75 37.296V51H3081.28V25.08H3074.75L3067.46 39.024L3060.16 25.08H3053.63V51H3060.16ZM3100.44 51H3106.96V38.496L3115.94 51H3124.44L3114.45 38.04L3123.81 25.08H3115.75L3106.96 37.56V25.08H3100.44V51ZM3138.83 24.36C3133.09 24.36 3129.15 26.928 3127.74 31.608L3133.64 33.24C3134.41 31.032 3135.99 30.072 3138.83 30.072C3141.71 30.072 3143.31 31.416 3143.48 34.272L3136.98 35.088C3130.23 35.928 3126.83 38.88 3126.83 43.848C3126.83 48.552 3130.31 51.72 3135.47 51.72C3139.21 51.72 3141.83 50.424 3143.48 47.808V51H3150.01V35.88C3150.01 28.056 3146.41 24.36 3138.83 24.36ZM3143.48 38.928V39.288C3143.48 40.44 3143.46 41.904 3142.86 43.128C3141.99 44.88 3139.83 46.344 3137.1 46.344C3134.53 46.344 3133.21 45.312 3133.21 43.272C3133.21 41.232 3134.77 40.008 3137.94 39.624L3143.48 38.928ZM3164.17 51V41.064H3174.83V51H3181.36V25.08H3174.83V35.016H3164.17V25.08H3157.64V51H3164.17ZM3200.07 24.36C3194.33 24.36 3190.39 26.928 3188.98 31.608L3194.88 33.24C3195.65 31.032 3197.23 30.072 3200.07 30.072C3202.95 30.072 3204.55 31.416 3204.72 34.272L3198.22 35.088C3191.47 35.928 3188.07 38.88 3188.07 43.848C3188.07 48.552 3191.55 51.72 3196.71 51.72C3200.45 51.72 3203.07 50.424 3204.72 47.808V51H3211.25V35.88C3211.25 28.056 3207.65 24.36 3200.07 24.36ZM3204.72 38.928V39.288C3204.72 40.44 3204.7 41.904 3204.1 43.128C3203.23 44.88 3201.07 46.344 3198.34 46.344C3195.77 46.344 3194.45 45.312 3194.45 43.272C3194.45 41.232 3196.01 40.008 3199.18 39.624L3204.72 38.928ZM3216.53 51.24C3217.63 51.552 3218.67 51.72 3219.63 51.72C3224.19 51.72 3226.8 47.904 3226.8 39.312V31.128H3234.87V51H3241.39V25.08H3220.8V36.912C3220.8 42.888 3220.11 45.888 3217.66 45.888C3217.32 45.888 3216.94 45.84 3216.53 45.72V51.24ZM3260.13 24.36C3254.4 24.36 3250.46 26.928 3249.05 31.608L3254.95 33.24C3255.72 31.032 3257.3 30.072 3260.13 30.072C3263.01 30.072 3264.62 31.416 3264.79 34.272L3258.29 35.088C3251.54 35.928 3248.13 38.88 3248.13 43.848C3248.13 48.552 3251.61 51.72 3256.77 51.72C3260.52 51.72 3263.13 50.424 3264.79 47.808V51H3271.32V35.88C3271.32 28.056 3267.72 24.36 3260.13 24.36ZM3264.79 38.928V39.288C3264.79 40.44 3264.77 41.904 3264.17 43.128C3263.3 44.88 3261.14 46.344 3258.41 46.344C3255.84 46.344 3254.52 45.312 3254.52 43.272C3254.52 41.232 3256.08 40.008 3259.25 39.624L3264.79 38.928ZM3285.48 51V37.296L3290.28 46.464H3295.27L3300.07 37.296V51H3306.6V25.08H3300.07L3292.77 39.024L3285.48 25.08H3278.95V51H3285.48Z" fill="white"/>
<path d="M3360 8.3094C3362.48 6.88034 3365.52 6.88034 3368 8.3094L3385.98 18.6906C3388.46 20.1197 3389.98 22.7607 3389.98 25.6188V46.3812C3389.98 49.2393 3388.46 51.8803 3385.98 53.3094L3368 63.6906C3365.52 65.1197 3362.48 65.1197 3360 63.6906L3342.02 53.3094C3339.54 51.8803 3338.02 49.2393 3338.02 46.3812V25.6188C3338.02 22.7607 3339.54 20.1197 3342.02 18.6906L3360 8.3094Z" fill="#F26DF8"/>
<path d="M3352.92 47.6583C3352.55 47.8061 3352.2 47.7753 3351.87 47.5659C3351.54 47.3565 3351.38 47.0548 3351.38 46.6607V40.1209C3351.38 39.8499 3351.45 39.6159 3351.61 39.4189C3351.77 39.2218 3351.98 39.0987 3352.22 39.0494L3362.51 36.5L3352.22 33.8767C3351.98 33.8274 3351.77 33.7043 3351.61 33.5072C3351.45 33.3102 3351.38 33.0762 3351.38 32.8052V26.3393C3351.38 25.9452 3351.54 25.6435 3351.87 25.4341C3352.2 25.2247 3352.55 25.1939 3352.92 25.3417L3376.96 35.4655C3377.4 35.6625 3377.63 36.0074 3377.63 36.5C3377.63 36.9926 3377.4 37.3375 3376.96 37.5345L3352.92 47.6583Z" fill="#36016A"/>
<path d="M3428.2 62.52V47.808C3429.71 50.256 3432.13 51.72 3435.83 51.72C3442.45 51.72 3447.54 46.104 3447.54 38.04C3447.54 30.024 3442.45 24.36 3435.83 24.36C3432.13 24.36 3429.71 25.824 3428.2 28.272V25.08H3421.67V62.52H3428.2ZM3434.39 45.624C3430.31 45.624 3428.2 42.696 3428.2 38.04C3428.2 33.528 3430.12 30.456 3434.39 30.456C3438.52 30.456 3440.63 33.432 3440.63 38.04C3440.63 42.504 3438.57 45.624 3434.39 45.624ZM3464.84 24.36C3459.11 24.36 3455.17 26.928 3453.75 31.608L3459.66 33.24C3460.43 31.032 3462.01 30.072 3464.84 30.072C3467.72 30.072 3469.33 31.416 3469.5 34.272L3462.99 35.088C3456.25 35.928 3452.84 38.88 3452.84 43.848C3452.84 48.552 3456.32 51.72 3461.48 51.72C3465.23 51.72 3467.84 50.424 3469.5 47.808V51H3476.03V35.88C3476.03 28.056 3472.43 24.36 3464.84 24.36ZM3469.5 38.928V39.288C3469.5 40.44 3469.47 41.904 3468.87 43.128C3468.01 44.88 3465.85 46.344 3463.11 46.344C3460.55 46.344 3459.23 45.312 3459.23 43.272C3459.23 41.232 3460.79 40.008 3463.95 39.624L3469.5 38.928ZM3495.13 51.72C3501.13 51.72 3505.4 48.648 3506.89 43.128L3500.22 41.736C3499.45 44.232 3498.06 45.624 3495.13 45.624C3491.19 45.624 3489.18 42.552 3489.18 38.04C3489.18 33.72 3491 30.456 3495.13 30.456C3497.53 30.456 3499.59 32.04 3500.36 34.728L3506.89 33C3505.74 27.672 3501.32 24.36 3495.23 24.36C3487.31 24.36 3482.27 30.168 3482.27 38.04C3482.27 45.816 3487.07 51.72 3495.13 51.72ZM3523.85 51.72C3529.85 51.72 3534.12 48.648 3535.61 43.128L3528.94 41.736C3528.17 44.232 3526.78 45.624 3523.85 45.624C3519.92 45.624 3517.9 42.552 3517.9 38.04C3517.9 33.72 3519.72 30.456 3523.85 30.456C3526.25 30.456 3528.32 32.04 3529.08 34.728L3535.61 33C3534.46 27.672 3530.04 24.36 3523.95 24.36C3516.03 24.36 3510.99 30.168 3510.99 38.04C3510.99 45.816 3515.79 51.72 3523.85 51.72ZM3541.8 51H3548.33V38.496L3557.31 51H3565.8L3555.82 38.04L3565.18 25.08H3557.12L3548.33 37.56V25.08H3541.8V51ZM3580.2 24.36C3574.46 24.36 3570.52 26.928 3569.11 31.608L3575.01 33.24C3575.78 31.032 3577.36 30.072 3580.2 30.072C3583.08 30.072 3584.68 31.416 3584.85 34.272L3578.35 35.088C3571.6 35.928 3568.2 38.88 3568.2 43.848C3568.2 48.552 3571.68 51.72 3576.84 51.72C3580.58 51.72 3583.2 50.424 3584.85 47.808V51H3591.38V35.88C3591.38 28.056 3587.78 24.36 3580.2 24.36ZM3584.85 38.928V39.288C3584.85 40.44 3584.83 41.904 3584.23 43.128C3583.36 44.88 3581.2 46.344 3578.47 46.344C3575.9 46.344 3574.58 45.312 3574.58 43.272C3574.58 41.232 3576.14 40.008 3579.31 39.624L3584.85 38.928ZM3613.65 51H3620.18V38.496L3629.16 51H3637.65L3627.67 38.04L3637.03 25.08H3628.96L3620.18 37.56V25.08H3613.65V37.56L3604.87 25.08H3596.8L3606.16 38.04L3596.18 51H3604.68L3613.65 38.496V51ZM3652.28 62.52L3666.92 25.08H3660.39L3653.63 42.72L3646.81 25.08H3640.04L3650.51 50.784L3646.23 62.52H3652.28ZM3694.45 51.72C3702.23 51.72 3707.6 46.128 3707.6 38.04C3707.6 29.952 3702.23 24.36 3694.45 24.36C3686.72 24.36 3681.35 29.976 3681.35 38.04C3681.35 46.128 3686.7 51.72 3694.45 51.72ZM3694.45 45.624C3690.51 45.624 3688.26 42.864 3688.26 38.04C3688.26 33.168 3690.47 30.456 3694.45 30.456C3698.41 30.456 3700.69 33.216 3700.69 38.04C3700.69 42.816 3698.39 45.624 3694.45 45.624ZM3737.99 51V31.128H3746.25V25.08H3723.21V31.128H3731.47V51H3737.99ZM3764.67 51C3770.6 51 3773.81 48.456 3773.81 43.776C3773.81 40.56 3772.21 38.256 3769.61 37.56C3771.68 36.744 3772.95 34.92 3772.95 32.064C3772.95 27.576 3769.66 25.08 3763.71 25.08H3752.21V51H3764.67ZM3763.78 30.12C3765.58 30.12 3766.85 30.792 3766.85 32.712C3766.85 34.632 3765.58 35.304 3763.78 35.304H3758.26V30.12H3763.78ZM3758.26 45.96V40.248H3764.67C3766.47 40.248 3767.74 41.184 3767.74 43.104C3767.74 45.024 3766.47 45.96 3764.67 45.96H3758.26ZM3791.71 51.72C3799.49 51.72 3804.86 46.128 3804.86 38.04C3804.86 29.952 3799.49 24.36 3791.71 24.36C3783.98 24.36 3778.61 29.976 3778.61 38.04C3778.61 46.128 3783.96 51.72 3791.71 51.72ZM3791.71 45.624C3787.77 45.624 3785.52 42.864 3785.52 38.04C3785.52 33.168 3787.73 30.456 3791.71 30.456C3795.67 30.456 3797.95 33.216 3797.95 38.04C3797.95 42.816 3795.65 45.624 3791.71 45.624ZM3825.45 21.432H3831.21V15.672H3825.45V21.432ZM3815.28 21.432H3821.04V15.672H3815.28V21.432ZM3823.24 45.72C3819.88 45.72 3817.72 43.584 3817.17 39.864H3835.36C3836.16 30.456 3831.64 24.36 3823.24 24.36C3815.56 24.36 3810.14 29.928 3810.14 38.04C3810.14 46.056 3815.42 51.72 3823.24 51.72C3828.81 51.72 3833.18 48.984 3835.15 44.232L3828.62 42.456C3827.61 44.688 3825.91 45.72 3823.24 45.72ZM3817.36 35.016C3818.13 31.896 3820.17 30.12 3823.24 30.12C3826.46 30.12 3828.5 31.944 3828.74 35.016H3817.36ZM3848 51V37.296L3852.8 46.464H3857.79L3862.59 37.296V51H3869.12V25.08H3862.59L3855.3 39.024L3848 25.08H3841.47V51H3848ZM3899.99 51.72C3907.76 51.72 3913.14 46.128 3913.14 38.04C3913.14 29.952 3907.76 24.36 3899.99 24.36C3892.26 24.36 3886.88 29.976 3886.88 38.04C3886.88 46.128 3892.23 51.72 3899.99 51.72ZM3899.99 45.624C3896.05 45.624 3893.79 42.864 3893.79 38.04C3893.79 33.168 3896 30.456 3899.99 30.456C3903.95 30.456 3906.23 33.216 3906.23 38.04C3906.23 42.816 3903.92 45.624 3899.99 45.624ZM3926.34 51V31.128H3936.18V51H3942.7V25.08H3919.81V51H3926.34ZM3981.79 51V25.08H3975.26V51H3981.79ZM3962.85 51C3969.69 51 3972.71 46.992 3972.71 42.312C3972.71 37.632 3969.69 33.624 3962.85 33.624H3957.4V25.08H3950.87V51H3962.85ZM3957.4 45.792V38.832H3961.82C3964.94 38.832 3966.16 40.392 3966.16 42.312C3966.16 44.232 3964.94 45.792 3961.82 45.792H3957.4ZM4002.58 51V31.128H4010.83V25.08H3987.79V31.128H3996.05V51H4002.58ZM4028.51 45.72C4025.15 45.72 4022.99 43.584 4022.44 39.864H4040.63C4041.42 30.456 4036.91 24.36 4028.51 24.36C4020.83 24.36 4015.41 29.928 4015.41 38.04C4015.41 46.056 4020.69 51.72 4028.51 51.72C4034.08 51.72 4038.45 48.984 4040.42 44.232L4033.89 42.456C4032.88 44.688 4031.18 45.72 4028.51 45.72ZM4022.63 35.016C4023.4 31.896 4025.44 30.12 4028.51 30.12C4031.73 30.12 4033.77 31.944 4034.01 35.016H4022.63Z" fill="white"/>
<rect x="4067" y="7" width="59" height="59" rx="16" fill="#FF3C48"/>
<path d="M4086.29 38.2188V42.3167C4086.29 43.3813 4086.87 44.3729 4087.81 44.8833L4095.1 48.8646C4095.97 49.3458 4097.02 49.3458 4097.9 48.8646L4105.19 44.8833C4106.12 44.3729 4106.71 43.3813 4106.71 42.3167V38.2188L4097.9 43.0313C4097.02 43.5125 4095.97 43.5125 4095.1 43.0313L4086.29 38.2188ZM4095.1 24.1313L4082.81 30.8396C4081.8 31.3937 4081.8 32.8521 4082.81 33.4063L4095.1 40.1146C4095.97 40.5958 4097.02 40.5958 4097.9 40.1146L4109.62 33.7125V42.3313C4109.62 43.1333 4110.28 43.7896 4111.08 43.7896C4111.88 43.7896 4112.54 43.1333 4112.54 42.3313V32.9833C4112.54 32.4438 4112.25 31.9625 4111.78 31.7L4097.9 24.1313C4097.02 23.6646 4095.97 23.6646 4095.1 24.1313V24.1313Z" fill="#530C0C"/>
<defs>
<clipPath id="clip0_1183_3309">
<rect width="65" height="65" fill="white" transform="translate(487 1)"/>
</clipPath>
<clipPath id="clip1_1183_3309">
<rect width="65" height="65" fill="white" transform="translate(2556 1)"/>
</clipPath>
</defs>
</svg>
